<svg id="Layer_1" data-name="Layer 1" xmlns="http://www.w3.org/2000/svg" viewBox="0 0 100 100"><defs><style>.cls-1{fill:#0071b4;}</style></defs><path class="cls-1" d="M50.88,57.4A2.53,2.53,0,0,1,50,59.28q-5.51,5.47-11,11a2.25,2.25,0,0,1-2.9.4,2.93,2.93,0,0,1-.48-.39c-1.36-1.36-2.72-2.71-4.08-4.08a2.26,2.26,0,0,1,0-3.4q5.51-5.49,11-11a2.46,2.46,0,0,1,1.9-.83l-.16-.19c-1-1-1.91-1.9-2.85-2.85a.31.31,0,0,0-.36-.09,7.78,7.78,0,0,1-10-5.92,7.54,7.54,0,0,1,.22-3.8.65.65,0,0,1,1.15-.29l2.85,2.85a1.55,1.55,0,0,0,2.38,0l1.32-1.33a1.52,1.52,0,0,0,0-2.31l-2.84-2.83c-.48-.49-.36-1,.3-1.21a7.78,7.78,0,0,1,9.92,6.06,8.13,8.13,0,0,1-.24,3.73.28.28,0,0,0,0,.27l4.84,4.85.08.06.15-.14,9.2-9.19a.44.44,0,0,0,.14-.4c0-.59-.08-1.18-.12-1.76a.66.66,0,0,1,.38-.67l5.46-3a.65.65,0,0,1,.89.12c.56.56,1.13,1.12,1.68,1.69a.63.63,0,0,1,.12.89c-1,1.81-2,3.62-3,5.44a.69.69,0,0,1-.71.39c-.6-.05-1.19-.09-1.79-.12a.43.43,0,0,0-.29.1q-4.68,4.65-9.34,9.32l-.06.07.18.19,14,14a3.5,3.5,0,0,1,1.08,2.25,3.41,3.41,0,0,1-5.89,2.59l-12.1-12.1a3.5,3.5,0,0,1-.24-.3ZM45.35,44a2.52,2.52,0,0,1-.3.35.63.63,0,0,1-.89-.89c.14-.16.3-.29.43-.44a1.24,1.24,0,0,0,.31-.42,6.37,6.37,0,0,0,.17-3.84A6.5,6.5,0,0,0,39.24,34c-.45,0-.91,0-1.36,0l-.08.13a.66.66,0,0,1,.22.12c.66.64,1.32,1.3,2,2a2.79,2.79,0,0,1,0,4c-.48.5-1,1-1.45,1.46a2.79,2.79,0,0,1-4,0l-2-2-.2-.19a.79.79,0,0,0,0,.17,10.66,10.66,0,0,0,0,1.6,6.49,6.49,0,0,0,8.77,5.23.78.78,0,0,1,.93.2q1.86,1.88,3.74,3.74l.19.19a2.48,2.48,0,0,1,1.4-.91,1.88,1.88,0,0,1,1.54.45l1.3-1.31Zm5.86,11.85.19.2L62.12,66.78l2.12,2.12a2.14,2.14,0,1,0,3-3.09L53.14,51.76,53,51.62l-1.32,1.32a1.86,1.86,0,0,1,.44,1.53A2.41,2.41,0,0,1,51.21,55.86ZM32.93,65.73l.18-.21,9.35-9.34a3.07,3.07,0,0,1,.26-.25,2.24,2.24,0,0,1,3.62.86,2.21,2.21,0,0,1-.6,2.51l-9.37,9.36a3.08,3.08,0,0,1-.31.24c.19.19.34.32.47.46a1,1,0,0,0,1.61,0L49.22,58.28a1,1,0,0,0,0-1.58l-4.07-4.06a1,1,0,0,0-1.63,0L33.6,62.57,32.37,63.8a1,1,0,0,0-.08,1.29C32.47,65.31,32.7,65.5,32.93,65.73ZM50.8,52a1.28,1.28,0,0,1,.14-.21l11.6-11.6a1,1,0,0,1,.84-.31l1.53.12a.24.24,0,0,0,.27-.14c.83-1.51,1.67-3,2.51-4.52a.19.19,0,0,0,0-.27c-.3-.29-.59-.58-.88-.88a.18.18,0,0,0-.27,0L62,36.67a.22.22,0,0,0-.14.25c0,.51.06,1,.12,1.53a1,1,0,0,1-.33.88L50,50.92c-.06,0-.11.12-.16.16Zm-17,14.58,1.4,1.4.13-.12,9.51-9.5L45,58.2a1,1,0,0,0-.48-1.54,1.06,1.06,0,0,0-1.08.32l-7,7Zm16-11.12c.25-.27.52-.54.78-.81a.59.59,0,0,0,0-1l-1.15-1.15-1.36-1.36a.56.56,0,0,0-.8-.08c-.32.3-.62.63-.91.94Z"/><path class="cls-1" d="M64.76,67.41a1,1,0,0,1,1-1,1,1,0,1,1-1,1Z"/><path class="cls-1" d="M46.89,93.64H45a3.06,3.06,0,0,1-3.19-3.18c0-1.15,0-2.29,0-3.44a1.92,1.92,0,0,0-1.39-1.94c-2.39-.95-4.83-2-7.23-3a2.4,2.4,0,0,0-1-.22,1.83,1.83,0,0,0-1.32.61c-.82.84-1.65,1.67-2.5,2.48a3.21,3.21,0,0,1-2.24,1A3.12,3.12,0,0,1,24,85c-2.34-2.29-4.72-4.68-7.09-7.09a3.07,3.07,0,0,1,0-4.46c.81-.85,1.65-1.68,2.49-2.5a1.85,1.85,0,0,0,.39-2.27c-1.15-2.68-2.13-5-3-7.23A1.93,1.93,0,0,0,14.83,60c-.6,0-1.12,0-1.63,0H11.39A3.09,3.09,0,0,1,8.2,56.82c0-3.31,0-6.63,0-9.94a3.09,3.09,0,0,1,3.25-3.22H14.9a1.83,1.83,0,0,0,1.83-1.29c1-2.54,2.06-5,3.07-7.39a1.83,1.83,0,0,0-.4-2.2c-.84-.82-1.68-1.65-2.5-2.5a3.08,3.08,0,0,1,0-4.46c2.22-2.26,4.54-4.58,7.09-7.09a3.16,3.16,0,0,1,2.22-1,3.32,3.32,0,0,1,2.3,1q1.23,1.2,2.43,2.43a1.85,1.85,0,0,0,1.34.62,2.59,2.59,0,0,0,1-.24c2.32-1,4.73-2,7.15-3a1.93,1.93,0,0,0,1.41-2c0-1.12,0-2.24,0-3.35A3.08,3.08,0,0,1,45,10H55a3.06,3.06,0,0,1,3.15,3.14c0,1.15,0,2.3,0,3.44a1.9,1.9,0,0,0,1.35,2c2.25.9,4.64,1.89,7.31,3a2.3,2.3,0,0,0,.91.21A1.77,1.77,0,0,0,69,21.25l.08-.09c.8-.81,1.6-1.61,2.42-2.4a3.27,3.27,0,0,1,2.27-1,3.16,3.16,0,0,1,2.24,1c2.36,2.32,4.73,4.68,7,7a3.08,3.08,0,0,1,0,4.53q-1.18,1.23-2.43,2.43a1.89,1.89,0,0,0-.4,2.35c1,2.36,2,4.77,3,7.15a2,2,0,0,0,1.92,1.43l1.72,0,1.79,0a3,3,0,0,1,3.14,3.14c0,3.34,0,6.69,0,10A3.08,3.08,0,0,1,88.59,60H85.15a1.91,1.91,0,0,0-1.89,1.32c-1,2.48-2,4.94-3,7.32a1.87,1.87,0,0,0,.41,2.27c.83.8,1.64,1.61,2.44,2.43a3.12,3.12,0,0,1,0,4.52c-2.17,2.21-4.47,4.51-7,7a3.21,3.21,0,0,1-2.25,1,3.37,3.37,0,0,1-2.33-1c-.82-.81-1.63-1.62-2.43-2.44a1.82,1.82,0,0,0-1.31-.59,2.39,2.39,0,0,0-1,.23c-2.56,1.1-4.9,2.07-7.15,3a2,2,0,0,0-1.46,2.09c0,.79,0,1.59,0,2.38v.79a3.07,3.07,0,0,1-3.3,3.34Zm3.19-1.88,4.57,0a1.47,1.47,0,0,0,1.65-1.69c0-1.09,0-2.18,0-3.27A3.74,3.74,0,0,1,59,83.24c2.29-.83,4.58-1.78,6.82-2.82A4.61,4.61,0,0,1,67.78,80,3.53,3.53,0,0,1,70.3,81c.82.79,1.64,1.61,2.43,2.43a1.33,1.33,0,0,0,2.09,0q3.39-3.41,6.79-6.79a1.47,1.47,0,0,0,.52-1.08,1.52,1.52,0,0,0-.54-1.08c-.83-.79-1.64-1.6-2.43-2.42a3.74,3.74,0,0,1-.59-4.4c1-2.21,2-4.53,2.85-6.89A3.73,3.73,0,0,1,85,58.14l1.67,0,1.68,0h0a1.45,1.45,0,0,0,1.64-1.62c0-3.31,0-6.37,0-9.33A1.63,1.63,0,0,0,89.53,46a1.61,1.61,0,0,0-1.2-.42c-.6,0-1.12,0-1.64,0H85a3.72,3.72,0,0,1-3.57-2.73c-.84-2.29-1.79-4.58-2.82-6.82a3.73,3.73,0,0,1,.6-4.46c.8-.82,1.61-1.63,2.44-2.43a1.44,1.44,0,0,0,.51-1,1.46,1.46,0,0,0-.5-1q-3.4-3.39-6.79-6.79a1.47,1.47,0,0,0-1.06-.52,1.57,1.57,0,0,0-1.1.55c-.75.79-1.52,1.55-2.3,2.31a3.68,3.68,0,0,1-2.61,1.16,4.76,4.76,0,0,1-2-.49c-2.2-1-4.47-2-6.74-2.79A3.67,3.67,0,0,1,56.3,16.8q0-1.63,0-3.27a1.59,1.59,0,0,0-.4-1.21,1.53,1.53,0,0,0-1.19-.42H50c-1.53,0-3.07,0-4.6,0a1.65,1.65,0,0,0-1.25.43,1.72,1.72,0,0,0-.4,1.27c0,1.08,0,2.17,0,3.26A3.73,3.73,0,0,1,41,20.43c-2.29.84-4.59,1.79-6.82,2.82a4.63,4.63,0,0,1-1.94.47,3.53,3.53,0,0,1-2.52-1.07c-.83-.8-1.64-1.61-2.43-2.44a1.5,1.5,0,0,0-1.06-.51,1.42,1.42,0,0,0-1,.5Q21.79,23.6,18.39,27a1.45,1.45,0,0,0-.52,1.08,1.5,1.5,0,0,0,.54,1.08q1.24,1.18,2.43,2.43A3.72,3.72,0,0,1,21.43,36c-1,2.22-2,4.54-2.85,6.9a3.74,3.74,0,0,1-3.53,2.68H11.7a1.63,1.63,0,0,0-1.24.41,1.6,1.6,0,0,0-.4,1.21c0,1.1,0,2.2,0,3.29v2.72c0,1.07,0,2.14,0,3.21a1.71,1.71,0,0,0,.4,1.33,1.63,1.63,0,0,0,1.25.43h.13c.49,0,1,0,1.45,0l1.73,0a3.72,3.72,0,0,1,3.57,2.72c.84,2.28,1.79,4.58,2.82,6.82a3.72,3.72,0,0,1-.6,4.46c-.8.82-1.61,1.64-2.44,2.43a1.33,1.33,0,0,0,0,2.09q3.41,3.39,6.79,6.79a1.47,1.47,0,0,0,1.06.52,1.57,1.57,0,0,0,1.1-.55c.75-.78,1.52-1.55,2.3-2.31A3.69,3.69,0,0,1,32.22,80a4.74,4.74,0,0,1,2,.48c2.2,1,4.47,2,6.74,2.8a3.67,3.67,0,0,1,2.76,3.63q0,1.63,0,3.27a1.63,1.63,0,0,0,.39,1.22,1.61,1.61,0,0,0,1.2.42Z"/></svg>