<svg id="Layer_1" data-name="Layer 1" xmlns="http://www.w3.org/2000/svg" viewBox="0 0 100 100"><defs><style>.cls-1{fill:#0071b4;}</style></defs><path class="cls-1" d="M82.39,82.93H76a1.1,1.1,0,0,1-1.1-1.1V75.44a1.1,1.1,0,0,1,2.19,0v5.3h5.3a1.1,1.1,0,0,1,0,2.19Z"/><path class="cls-1" d="M42.26,51.08a14.26,14.26,0,0,0,5-.39,5.07,5.07,0,0,0,3-1.89,3.44,3.44,0,0,0,.64-2.24H41.42c.52-.79,1-1.53,1.51-2.25.06-.08.24-.09.36-.09h7.34a3,3,0,0,0-.78-1.11,5.33,5.33,0,0,0-3.22-1.34c-1.56-.11-3.14-.11-4.71-.16h-.41c.51-.76,1-1.46,1.46-2.16a.33.33,0,0,1,.26-.11l15.65-.05.07,0c-.41.64-.84,1.26-1.23,1.91a.72.72,0,0,1-.75.4c-1.13,0-2.25,0-3.38,0h-.37c.31.59.6,1.16.9,1.72a2.19,2.19,0,0,1,.12.33c.19.56.19.56.76.56h4a14.88,14.88,0,0,0-.89,1.41,1.59,1.59,0,0,1-1.77,1c-.59,0-1.19,0-1.72,0a18.76,18.76,0,0,1-.73,2,7,7,0,0,1-4.68,3.66c-.81.22-1.65.3-2.48.44l-.42.08c.6.76,1.19,1.48,1.77,2.21l4.23,5.26c.91,1.14,1.83,2.27,2.74,3.42a2.8,2.8,0,0,1,.26.57c-.46,0-.83.07-1.2.07-.76,0-1.53,0-2.29,0a.39.39,0,0,1-.27-.11l-3.9-4.62-3.27-3.86-2-2.31a.44.44,0,0,1-.13-.25C42.26,52.52,42.26,51.81,42.26,51.08Z"/><path class="cls-1" d="M76.4,82.44a.83.83,0,0,1-.54-.21.79.79,0,0,1,0-1.12c7.46-8.22,11.75-19.82,11.75-31.83,0-13.52-5.21-26-14.3-34.39a.8.8,0,0,1-.05-1.12.83.83,0,0,1,.59-.26.78.78,0,0,1,.53.21c9.41,8.64,14.81,21.6,14.81,35.56,0,12.58-4.32,24.26-12.16,32.9A.8.8,0,0,1,76.4,82.44Z"/><path class="cls-1" d="M24.43,82.44a.81.81,0,0,1-.59-.26C16,73.54,11.68,61.86,11.68,49.28,11.68,35.43,17,22.53,26.3,13.9a.78.78,0,0,1,.54-.21.79.79,0,0,1,.54,1.37c-9,8.33-14.11,20.81-14.11,34.22,0,12,4.28,23.61,11.74,31.83a.77.77,0,0,1,.21.57.78.78,0,0,1-.26.55A.82.82,0,0,1,24.43,82.44Z"/><path class="cls-1" d="M76.4,82.44a.83.83,0,0,1-.54-.21.79.79,0,0,1,0-1.12c7.46-8.22,11.75-19.82,11.75-31.83,0-13.52-5.21-26-14.3-34.39a.8.8,0,0,1-.05-1.12.83.83,0,0,1,.59-.26.78.78,0,0,1,.53.21c9.41,8.64,14.81,21.6,14.81,35.56,0,12.58-4.32,24.26-12.16,32.9A.8.8,0,0,1,76.4,82.44Z"/><path class="cls-1" d="M24.43,82.44a.81.81,0,0,1-.59-.26C16,73.54,11.68,61.86,11.68,49.28c0-13.85,5.61-27.11,14.9-35.75a.83.83,0,0,1,.54-.21.82.82,0,0,1,.59.25.79.79,0,0,1-.05,1.12C18.7,23,13.27,35.87,13.27,49.28c0,12,4.28,23.61,11.74,31.83a.77.77,0,0,1,.21.57.78.78,0,0,1-.26.55A.82.82,0,0,1,24.43,82.44Z"/><path class="cls-1" d="M70.12,74.31a.77.77,0,0,1-.53-.21.79.79,0,0,1,0-1.12A36,36,0,0,0,78.4,49c0-10.21-3.93-19.66-10.78-25.95a.79.79,0,0,1-.05-1.12.77.77,0,0,1,.58-.26.78.78,0,0,1,.54.21C75.87,28.44,80,38.32,80,49a37.06,37.06,0,0,1-9.28,25.08A.77.77,0,0,1,70.12,74.31Z"/><path class="cls-1" d="M30.7,74.31a.77.77,0,0,1-.59-.26A37.05,37.05,0,0,1,20.84,49c0-10.56,4.06-20.4,11.15-27a.81.81,0,0,1,.54-.21.79.79,0,0,1,.54,1.37C26.3,29.43,22.42,38.84,22.42,49a36,36,0,0,0,8.86,24,.79.79,0,0,1-.05,1.12A.76.76,0,0,1,30.7,74.31Z"/><path class="cls-1" d="M70.12,74.31a.77.77,0,0,1-.53-.21.79.79,0,0,1,0-1.12A36,36,0,0,0,78.4,49c0-10.21-3.93-19.66-10.78-25.95a.79.79,0,0,1-.05-1.12.77.77,0,0,1,.58-.26.78.78,0,0,1,.54.21C75.87,28.44,80,38.32,80,49a37.06,37.06,0,0,1-9.28,25.08A.77.77,0,0,1,70.12,74.31Z"/><path class="cls-1" d="M30.7,74.31a.77.77,0,0,1-.59-.26A37.05,37.05,0,0,1,20.84,49c0-10.56,4.06-20.4,11.15-27a.81.81,0,0,1,.54-.21.79.79,0,0,1,.54,1.37C26.3,29.43,22.42,38.84,22.42,49a36,36,0,0,0,8.86,24,.79.79,0,0,1-.05,1.12A.76.76,0,0,1,30.7,74.31Z"/><path class="cls-1" d="M28.4,20a.8.8,0,0,1-.79-.8V13.58H22A.8.8,0,0,1,22,12H28.4a.8.8,0,0,1,.8.79v6.39A.8.8,0,0,1,28.4,20Z"/><path class="cls-1" d="M50.64,71.05A21.76,21.76,0,1,1,72.41,49.29,21.79,21.79,0,0,1,50.64,71.05Zm0-41.75a20,20,0,1,0,20,20A20,20,0,0,0,50.64,29.3Z"/></svg>