<svg id="Layer_1" data-name="Layer 1" xmlns="http://www.w3.org/2000/svg" viewBox="0 0 100 100"><defs><style>.cls-1{fill:#0071b4;}</style></defs><path class="cls-1" d="M97.36,50.94,74.51,35.23a.7.7,0,0,0-.5-.16.34.34,0,0,0-.17,0l-38.28-8.6a.58.58,0,0,0-.41.17l-3.9,3.64L29.5,32l-.82.76L27,34.32,17.71,43a.6.6,0,0,0-.2.51.66.66,0,0,0,.29.47l2.87,1.74.84,22.35.09.3a.76.76,0,0,0,.11.14L55.54,91.31a.58.58,0,0,0,.36.12.45.45,0,0,0,.25-.06l36.58-11.2.12-.07L93,80l.12-.15a.59.59,0,0,0,.06-.2L93.19,53l3.91-1a.63.63,0,0,0,.44-.45A.61.61,0,0,0,97.36,50.94ZM19.15,43.32l10.33-9.65.82-.77,5.49-5.12,37.15,8.51L51,62.73Zm2.78,3.15L47,61.74l-24.3,5.53ZM55.28,89.59,23.59,68.34l25-5.68,2.35,1.43a.63.63,0,0,0,.33.09h.12l3.94-1Zm1.24.33V62.83l1.27-.34,33.2,17Zm35.4-11.34L59.57,62,92,53.41ZM57.83,61.2a.66.66,0,0,0-.27.06l-4.81,1.29L74.27,36.69,95.7,51.09Z"/><path class="cls-1" d="M55.9,91.73a.9.9,0,0,1-.54-.18L21.55,68.74a.77.77,0,0,1-.21-.24l0-.07-.09-.3-.85-22.26-2.72-1.66a.91.91,0,0,1-.15-1.45L34.94,26.47a.9.9,0,0,1,.62-.25L73.81,34.8a.51.51,0,0,1,.17,0,1,1,0,0,1,.73.24L97.57,50.72a1,1,0,0,1,.27.9.93.93,0,0,1-.66.67l-3.69,1-.06,26.41a.76.76,0,0,1-.09.33l-.22.26-.1.08-.14.08L56.28,91.65A.9.9,0,0,1,55.9,91.73Zm-34-23.51,0,0L55.7,91.06a.36.36,0,0,0,.3,0L92.71,79.84l.13-.16s0,0,0-.05l.07-26.82L97,51.71a.32.32,0,0,0,.14-.53L74.34,35.47a.44.44,0,0,0-.34-.1l-.09,0h-.14L35.5,26.81a.72.72,0,0,0-.15.1L17.91,43.2a.3.3,0,0,0-.1.25.33.33,0,0,0,.15.25l3,1.82L21.81,68Zm34.35,22.1V62.6l1.6-.43.11,0L91.78,79.56Zm.6-27.26V89.51L90.19,79.42,57.75,62.81ZM55.58,90.15l-32.74-22,25.75-5.86,2.46,1.49a.26.26,0,0,0,.17.05h.1l4.26-1.12ZM24.33,68.48,55,89V63.54l-3.67.94h-.09a.86.86,0,0,1-.48-.13L48.49,63ZM92.22,79.07,58.74,61.93,92.25,53Zm-31.82-17,31.22,16,0-24.29Zm-38,5.53-.82-21.72,26.2,15.94ZM22.25,47,23,66.9l23.22-5.29ZM51.1,63.12,50.88,63,18.65,43.37,35.7,27.45,73.48,36.1ZM19.64,43.27,51,62.33,72.4,36.47,35.88,28.11ZM51.92,63.08,74.21,36.29l22.2,14.92-.64.17L57.83,61.5a.31.31,0,0,0-.13,0Zm22.4-26L53.59,62l3.89-1a.62.62,0,0,1,.31-.07L95,51Z"/><path class="cls-1" d="M65.94,40.14l-.18-.87a0,0,0,0,1,0,0s0,0,0,0l0-.06h0a.13.13,0,0,0-.06,0h0L51.37,34.93c-.1,0-.26,0-.4.16L39,48.18a1,1,0,0,0-.19.24c-.15.27-.16.56,0,.64h0l4.52,2.73.35.22,1.76,1.07.38.22,4.69,2.85.12.07.76.46c.11.07.28,0,.43-.16L65.71,40.8A.85.85,0,0,0,65.94,40.14ZM61.18,39l-1.84,2.06-.71.29-2.77-1,0-.57,1.67-1.86ZM52,43.15l-.06.62-1.53,1.7-.76.32-2.32-1,0-.55L49,42.44l.67-.26Zm-2-1.81,1.53-1.7.64-.25,2.51.92,0,.53-1.58,1.74-.69.29-2.39-1Zm-.58,4.73-.07.62-1.46,1.63-.65.27-2.29-1.14,0-.58,1.41-1.55.73-.28Zm.22.64.64-.24,2.63,1.18,0,.64L51.32,50l-.68.28L48,49l0-.49Zm1-.52v-.56l1.64-1.82.74-.28,2.67,1.08,0,.62-1.72,1.92-.61.25Zm2.63-3v-.51l1.71-1.89.55-.21,2.87,1,0,.54L56.69,44l-.75.31Zm4.09-5.37L55.74,39.6l-.9.38-2.37-.86,0-.55L54,36.87ZM51,36l2.79.82-1.48,1.64-.8.33-2.3-.83Zm-2,2.24,2.34.86,0,.54-1.46,1.61-.73.31-2.29-.93ZM46.5,40.9l2.3.94,0,.54L47.19,44.1l-.65.27-2.27-1ZM44,43.64l2.22,1-.07.61-1.36,1.5-.68.29-2.21-1.1Zm-4.28,4.67,1.91-2.08L43.8,47.3l-.08.63-1.63,1.8Zm2.56,1.54L44,48l.67-.26,2.2,1.1-.08.74L45,51.49Zm2.93,1.76,1.85-2,.73-.28,2.49,1.24-.07.71-2,2.19Zm5.84,3.51-2.61-1.57,2.05-2.29.72-.27,2.43,1.21Zm2.86-3.22-2.44-1.21,0-.54,1.57-1.75.82-.31,2.44,1.1Zm2.68-3-2.48-1.12v-.55l1.75-2,.71-.27,2.56,1Zm2.82-3.17-2.55-1v-.54l1.66-1.86.78-.29,2.58.94Zm2.75-3.09-2.58-.93v-.58l1.83-2,3.1.92Z"/><path class="cls-1" d="M48,34.14l-.1-.66v0a0,0,0,0,0,0,0l0,0h0l-.05,0h0l-11-2.62c-.07,0-.2,0-.32.14L26,41.57a.85.85,0,0,0-.17.2c-.15.23-.19.46-.08.53h0l3.44,2,.27.17,1.34.79.29.17,3.62,2.15.09,0,.6.36c.09,0,.22,0,.36-.15L47.82,34.66A.68.68,0,0,0,48,34.14Zm-3.69-.69-1.55,1.66-.58.26-2.13-.67,0-.44,1.42-1.5ZM36.86,37l-.09.5-1.33,1.4-.63.28L33,38.48l.06-.43,1.4-1.45.55-.23ZM35.35,35.7l1.33-1.38.52-.22,1.93.61-.07.42L37.7,36.55l-.57.26-1.83-.67Zm-.79,3.76-.1.49-1.29,1.36-.55.24-1.76-.81.07-.47L32.18,39l.61-.26Zm.13.49.53-.22,2,.84-.09.52-1.35,1.43-.57.25-2-.94.05-.39Zm.81-.45,0-.45L37,37.55l.61-.25,2.06.74-.08.49-1.5,1.59-.5.23ZM37.8,37l0-.4,1.47-1.54.45-.19,2.21.7-.06.42-1.4,1.5-.61.27Zm3.56-4.32L40,34.12l-.73.33-1.82-.57.05-.42,1.31-1.36Zm-4.83-1.19,2.13.52-1.27,1.31-.65.29L35,33.1Zm-1.78,1.8,1.8.57-.08.42L35.2,35.63l-.6.26-1.75-.63ZM32.62,35.5l1.76.63-.09.44L32.92,38l-.53.24-1.74-.72Zm-2.21,2.24,1.7.7-.1.49-1.22,1.25-.57.26-1.69-.78Zm-3.84,3.91,1.72-1.76,1.66.78-.11.5L28.36,42.7Zm1.94,1.13L30,41.2,30.6,41l1.69.79-.12.6L30.6,44Zm2.24,1.31,1.65-1.74L33,42.1l1.92.9-.1.57-1.77,1.88Zm4.49,2.63-2-1.18,1.83-2,.6-.25,1.89.89ZM37.79,44l-1.89-.89.05-.43,1.38-1.48.68-.28,1.9.78Zm2.36-2.55-1.93-.79,0-.45,1.53-1.63.58-.24,2,.72Zm2.43-2.64-2-.72,0-.42,1.43-1.53.62-.26,2,.63Zm2.35-2.55-2-.62,0-.44,1.56-1.66,2.38.59Z"/><circle class="cls-1" cx="17.09" cy="17.56" r="6.98"/><path class="cls-1" d="M17.09,8.46a.5.5,0,0,1-.5-.5V3.31a.5.5,0,1,1,1,0V8A.5.5,0,0,1,17.09,8.46Z"/><path class="cls-1" d="M12.09,9.39a.52.52,0,0,1-.44-.25l-2.32-4a.51.51,0,0,1,.18-.69.52.52,0,0,1,.69.19l2.32,4a.51.51,0,0,1-.18.69A.57.57,0,0,1,12.09,9.39Z"/><path class="cls-1" d="M8.43,13.05A.54.54,0,0,1,8.18,13l-4-2.33a.5.5,0,1,1,.5-.86l4,2.32a.5.5,0,0,1,.18.68A.48.48,0,0,1,8.43,13.05Z"/><path class="cls-1" d="M7.09,18.06H2.44a.5.5,0,0,1-.5-.5.5.5,0,0,1,.5-.5H7.09a.5.5,0,0,1,.5.5A.51.51,0,0,1,7.09,18.06Z"/><path class="cls-1" d="M4.4,25.38a.5.5,0,0,1-.25-.93l4-2.33a.5.5,0,0,1,.68.19.49.49,0,0,1-.18.68l-4,2.32A.45.45,0,0,1,4.4,25.38Z"/><path class="cls-1" d="M9.76,30.74a.57.57,0,0,1-.25-.06A.51.51,0,0,1,9.33,30l2.32-4a.5.5,0,1,1,.87.5l-2.32,4A.51.51,0,0,1,9.76,30.74Z"/><path class="cls-1" d="M17.09,32.71a.5.5,0,0,1-.5-.5V27.56a.5.5,0,0,1,1,0v4.65A.5.5,0,0,1,17.09,32.71Z"/><path class="cls-1" d="M24.42,30.74a.5.5,0,0,1-.44-.25l-2.32-4a.51.51,0,0,1,.18-.69.5.5,0,0,1,.68.19l2.33,4a.51.51,0,0,1-.19.69A.5.5,0,0,1,24.42,30.74Z"/><path class="cls-1" d="M29.78,25.38a.45.45,0,0,1-.25-.07L25.5,23a.5.5,0,0,1,.5-.87l4,2.33a.5.5,0,0,1-.25.93Z"/><path class="cls-1" d="M31.74,18.06H27.09a.5.5,0,0,1-.5-.5.5.5,0,0,1,.5-.5h4.65a.5.5,0,0,1,.5.5A.5.5,0,0,1,31.74,18.06Z"/><path class="cls-1" d="M25.75,13.05a.48.48,0,0,1-.43-.25.5.5,0,0,1,.18-.68l4-2.32a.5.5,0,0,1,.5.86L26,13A.54.54,0,0,1,25.75,13.05Z"/><path class="cls-1" d="M22.09,9.39a.54.54,0,0,1-.25-.06.51.51,0,0,1-.18-.69l2.32-4a.5.5,0,1,1,.87.5l-2.33,4A.5.5,0,0,1,22.09,9.39Z"/></svg>