<svg id="Layer_1" data-name="Layer 1" xmlns="http://www.w3.org/2000/svg" viewBox="0 0 100 100"><defs><style>.cls-1{fill:#0071b4;}</style></defs><path class="cls-1" d="M51.38,35.8C67.52,29.53,83,40.93,83.11,57.44c.61.19,1.25.41,1.9.6,7.33,2.2,11.43,8.31,10.61,15.82A14.06,14.06,0,0,1,81.76,86.25c-14.6.23-29.21.45-43.79,0-15.15-.52-23.58-15.66-16.9-29.31a3.42,3.42,0,0,0,0-2.77C15.72,45,17.79,34.69,26.12,29.31s18.58-3,24.63,5.68C50.91,35.23,51.1,35.45,51.38,35.8Zm-7.7,11.1c8.34,2,13.46,7.24,16,15.08a1.91,1.91,0,0,1,.07.36,1.34,1.34,0,0,1-2.57.58v0c-2.44-7.16-7-11.87-14.65-13.25-10.28-1.87-19.59,4.75-20.91,14.87C20.38,73.81,27.53,83,37.2,83.32c15,.47,30,.26,45,.08A11.12,11.12,0,0,0,92.73,74c.87-5.37-1.55-11.29-6.59-12.34-5.48-1.13-6.08-4-6.56-8.61C78.76,45.13,71.69,38.4,64,37.11A19.14,19.14,0,0,0,43.68,46.9ZM23.86,53a21,21,0,0,1,15.41-6.51,2.54,2.54,0,0,0,1.64-.87c2.45-2.86,4.83-5.78,7.5-9a14.2,14.2,0,0,0-13.2-7.21,14,14,0,0,0-13.08,8.83Q18.74,45.86,23.86,53Z"/><path class="cls-1" d="M33.18,22.26a1,1,0,0,1-1-1V14.45a1,1,0,0,1,1.91,0V21.3A1,1,0,0,1,33.18,22.26Z"/><path class="cls-1" d="M23.64,24a1,1,0,0,1-.83-.47l-4.44-7.69a1,1,0,0,1,1.66-1l4.43,7.68a1,1,0,0,1-.35,1.31A1,1,0,0,1,23.64,24Z"/><path class="cls-1" d="M16.65,31a.94.94,0,0,1-.48-.13l-6-3.57a1,1,0,0,1,.95-1.65l6,3.57A1,1,0,0,1,16.65,31Z"/><path class="cls-1" d="M14.1,40.57H5.23a1,1,0,1,1,0-1.91H14.1a1,1,0,0,1,0,1.91Z"/><path class="cls-1" d="M9.9,53.87a1,1,0,0,1-.48-1.78l6.75-3.76a1,1,0,1,1,1,1.65l-6.75,3.76A.94.94,0,0,1,9.9,53.87Z"/><path class="cls-1" d="M49.7,31a1,1,0,0,1-.48-1.78l4.32-3.57a1,1,0,1,1,1,1.65L50.18,30.9A.94.94,0,0,1,49.7,31Z"/><path class="cls-1" d="M42.72,24a1,1,0,0,1-.48-.12,1,1,0,0,1-.35-1.31l4.44-7.68a1,1,0,1,1,1.65,1l-4.44,7.69A.94.94,0,0,1,42.72,24Z"/></svg>