<svg id="Layer_1" data-name="Layer 1" xmlns="http://www.w3.org/2000/svg" viewBox="0 0 100 100"><defs><style>.cls-1{fill:#0071b4;}</style></defs><circle class="cls-1" cx="18.03" cy="16.4" r="6.98"/><path class="cls-1" d="M18,7.3a.5.5,0,0,1-.5-.5V2.15a.5.5,0,0,1,.5-.5.5.5,0,0,1,.5.5V6.8A.5.5,0,0,1,18,7.3Z"/><path class="cls-1" d="M13,8.24A.52.52,0,0,1,12.59,8L10.27,4a.49.49,0,0,1,.18-.68.51.51,0,0,1,.69.18l2.32,4a.49.49,0,0,1-.18.68A.47.47,0,0,1,13,8.24Z"/><path class="cls-1" d="M9.37,11.9a.45.45,0,0,1-.25-.07l-4-2.32a.51.51,0,0,1-.18-.69.49.49,0,0,1,.68-.18l4,2.32a.51.51,0,0,1,.18.69A.5.5,0,0,1,9.37,11.9Z"/><path class="cls-1" d="M8,16.9H3.38a.5.5,0,0,1-.5-.5.5.5,0,0,1,.5-.5H8a.5.5,0,0,1,.5.5A.51.51,0,0,1,8,16.9Z"/><path class="cls-1" d="M5.34,24.22a.5.5,0,0,1-.25-.93l4-2.32a.5.5,0,1,1,.5.86l-4,2.33A.54.54,0,0,1,5.34,24.22Z"/><path class="cls-1" d="M10.7,29.59a.59.59,0,0,1-.25-.07.49.49,0,0,1-.18-.68l2.32-4a.51.51,0,0,1,.69-.18.49.49,0,0,1,.18.68l-2.32,4A.52.52,0,0,1,10.7,29.59Z"/><path class="cls-1" d="M18,31.55a.5.5,0,0,1-.5-.5V26.4a.5.5,0,0,1,.5-.5.5.5,0,0,1,.5.5v4.65A.5.5,0,0,1,18,31.55Z"/><path class="cls-1" d="M25.35,29.59a.5.5,0,0,1-.43-.25l-2.32-4a.5.5,0,0,1,.86-.5l2.33,4a.5.5,0,0,1-.19.68A.52.52,0,0,1,25.35,29.59Z"/><path class="cls-1" d="M30.72,24.22a.54.54,0,0,1-.25-.06l-4-2.33a.5.5,0,1,1,.5-.86l4,2.32a.5.5,0,0,1-.25.93Z"/><path class="cls-1" d="M32.68,16.9H28a.5.5,0,0,1-.5-.5.5.5,0,0,1,.5-.5h4.65a.5.5,0,0,1,.5.5A.5.5,0,0,1,32.68,16.9Z"/><path class="cls-1" d="M26.69,11.9a.5.5,0,0,1-.43-.25.51.51,0,0,1,.18-.69l4-2.32a.5.5,0,0,1,.68.18.51.51,0,0,1-.18.69l-4,2.32A.45.45,0,0,1,26.69,11.9Z"/><path class="cls-1" d="M23,8.24a.45.45,0,0,1-.25-.07.49.49,0,0,1-.18-.68l2.32-4a.5.5,0,0,1,.87.5L23.46,8A.5.5,0,0,1,23,8.24Z"/><path class="cls-1" d="M55.19,75.45q-16.95,0-33.89,0c-4.84,0-5.86-1.12-5-5.65,2.23-11.74,4.63-23.45,6.76-35.2.58-3.22,1.93-4.48,5.27-4.46q26.9.16,53.81,0c3,0,4.58,1,5.15,4.12C89.47,46.13,91.88,58,94.14,69.84c.83,4.39-.18,5.58-4.67,5.6C78,75.48,66.62,75.45,55.19,75.45ZM92,73.1c.19-.7.36-1,.32-1.19-2.33-12.4-4.71-24.79-7-37.19-.43-2.36-1.94-2.42-3.79-2.42-17.54,0-35.08.07-52.62,0-2.53,0-3.47.9-3.91,3.26C22.91,46.75,20.7,58,18.57,69.16c-.23,1.23-.31,2.49-.49,3.94Z"/><path class="cls-1" d="M88.78,70H66.1V59.44H86.76ZM67.14,69H87.53L85.9,60.48H67.14Z"/><path class="cls-1" d="M43.23,70H21.69l1.92-10.71H43.23Zm-20.3-1H42.19V60.3H24.48Z"/><path class="cls-1" d="M64.26,46.24H45.2V35.53H64.26Zm-18-1h17V36.57h-17Z"/><path class="cls-1" d="M64.21,70H45.15V59.41H64.21Zm-18-1h17v-8.5h-17Z"/><path class="cls-1" d="M84.18,46.18H66.13V35.33h4c3.36,0,6.55,0,9.77.11a3.7,3.7,0,0,1,2.69,2.4,46.13,46.13,0,0,1,1.07,5.38c.12.76.25,1.55.39,2.36Zm-17-1H82.94c-.1-.6-.19-1.19-.29-1.77a45.33,45.33,0,0,0-1-5.26,2.77,2.77,0,0,0-1.74-1.64c-3.2-.15-6.36-.13-9.72-.11h-3Z"/><path class="cls-1" d="M86.33,57.45H66.11V47.92h4.36c4.17,0,8.12,0,12.13.07a3,3,0,0,1,2.34,1.91,47.7,47.7,0,0,1,1,4.87q.15,1,.33,2.07Zm-19.18-1H85.1c-.09-.5-.16-1-.24-1.48-.27-1.67-.52-3.25-.92-4.76A2.16,2.16,0,0,0,82.58,49c-4-.09-7.94-.08-12.11-.07H67.15Z"/><path class="cls-1" d="M64.3,57.48H45.2V48.2H64.3Zm-18.06-1h17v-7.2h-17Z"/><path class="cls-1" d="M43.23,46.31h-17l2-10.84h15Zm-15.73-1H42.19V36.5H29.08Z"/><path class="cls-1" d="M43.33,57.47H24.14l.1-.61c.11-.67.2-1.32.28-2a23.19,23.19,0,0,1,.9-4.49A4.11,4.11,0,0,1,28.49,48c3.4-.15,6.79-.13,10.38-.11l3.94,0h.52Zm-18-1H42.29v-7.5H38.86c-3.58,0-7,0-10.33.11a3.21,3.21,0,0,0-2.13,1.71A23.45,23.45,0,0,0,25.55,55C25.49,55.49,25.43,56,25.36,56.43Z"/><path class="cls-1" d="M57.35,82.31V77.52a.73.73,0,0,0-.73-.73H53.41a.73.73,0,0,0-.73.73v4.79A.73.73,0,0,1,52,83h-1.9a.73.73,0,0,0-.66.42l-2.52,5.46a.73.73,0,0,0,.66,1H61.81a.72.72,0,0,0,.68-1L60.6,83.53a.71.71,0,0,0-.68-.49H58.07A.73.73,0,0,1,57.35,82.31Z"/></svg>