<svg id="Layer_1" data-name="Layer 1" xmlns="http://www.w3.org/2000/svg" viewBox="0 0 100 100"><defs><style>.cls-1{fill:#0071b4;}</style></defs><path class="cls-1" d="M20.8,74.55c1.76,3.66,3.51,7.28,5.29,10.94.42-.2.81-.37,1.19-.56a4.65,4.65,0,0,1,4.07-.07c5.08,2.27,10.18,4.5,15.26,6.76a2.73,2.73,0,0,0,2.49-.05l16.81-8.08c1.07-.52,2.15-1,3.21-1.55a2.66,2.66,0,1,0-2.33-4.79l-7.31,3.49a1.06,1.06,0,0,1-1.1,0,1,1,0,0,1,.1-1.71c2.56-1.23,5.11-2.48,7.7-3.64a4.51,4.51,0,0,1,5.25,1.13A4.61,4.61,0,0,1,72,81.83a5.55,5.55,0,0,1-2.76,2.22L54.4,91.18c-1.73.83-3.44,1.68-5.2,2.43a3.72,3.72,0,0,1-3-.06q-7.85-3.45-15.68-6.93a2.61,2.61,0,0,0-2.12-.05c-.46.2-.91.44-1.42.69.19.41.38.79.56,1.17A1,1,0,0,1,27,90l-3.08,1.5c-.76.37-1.42.11-1.56-.61A1,1,0,0,1,23,89.77l2.13-1,.31-.19L18,73.18l-2.32,1.11c-.16.08-.33.17-.5.24a1,1,0,0,1-1.22-.47.92.92,0,0,1,.36-1.25c1.26-.63,2.52-1.25,3.8-1.83a.89.89,0,0,1,1.2.48l.65,1.3,2-1c2.3-1.12,4.58-2.28,6.91-3.34a6.86,6.86,0,0,1,6.09.07c5.81,2.81,11.62,5.64,17.46,8.4a4.78,4.78,0,0,1,2.83,5.19,4.52,4.52,0,0,1-6.09,3.36c-3.27-1.33-6.51-2.76-9.76-4.16A1,1,0,0,1,38.81,80a1,1,0,0,1,1.42-.45c3.12,1.34,6.24,2.69,9.37,4a2.54,2.54,0,0,0,2.93-.45,2.48,2.48,0,0,0,.65-2.8,2.61,2.61,0,0,0-1.42-1.51L40.23,73.27c-2-1-4.09-2-6.13-3a5,5,0,0,0-4.6,0c-2.79,1.33-5.55,2.69-8.33,4C21.06,74.39,21,74.46,20.8,74.55Z"/><path class="cls-1" d="M55.6,67.68a21,21,0,0,0-3.69-11.57,29.7,29.7,0,0,0-7.21-7.66,1,1,0,1,1,1.16-1.58A30.72,30.72,0,0,1,55.37,58.3a.63.63,0,0,0,.1.2c.09.11.2.21.3.31a1.1,1.1,0,0,0,.25-.34c.24-1,.49-2,.68-3a21.23,21.23,0,0,0,0-8.33A14.25,14.25,0,0,0,50,37.78a26.2,26.2,0,0,0-9.27-3.45,36.58,36.58,0,0,0-6.35-.66.48.48,0,0,0-.54.37,23.38,23.38,0,0,0-.39,13.73,18.5,18.5,0,0,0,7.82,10.3,30.82,30.82,0,0,0,7.84,3.72c.42.14.77.33.85.81a1,1,0,0,1-1.34,1.08c-1.34-.48-2.68-1-4-1.53a24.9,24.9,0,0,1-9.2-6.64,19.94,19.94,0,0,1-4.62-10.78,26.8,26.8,0,0,1,1.42-12c.27-.78.49-1,1.21-1a36,36,0,0,1,14.84,2.91,18.28,18.28,0,0,1,8,6.57,17.71,17.71,0,0,1,2.71,10.37,34.35,34.35,0,0,1-2,10.22A2.08,2.08,0,0,0,57,63a21.68,21.68,0,0,1-.31,11.08c-.14.49-.26,1-.42,1.47a1,1,0,0,1-1.24.68A.92.92,0,0,1,54.42,75a27.7,27.7,0,0,0,1.06-5.35C55.54,69,55.56,68.34,55.6,67.68Z"/><path class="cls-1" d="M66.25,39.81a10.93,10.93,0,0,1,7.69,3.46,27.83,27.83,0,0,1,2.45,3.06c.48.64.34.94-.11,1.58q-1.92,2.64-3.74,5.34a30.92,30.92,0,0,1-4.93,6.06,16.7,16.7,0,0,1-6,3.51c-.82.27-1.51-.25-1.35-1a1.15,1.15,0,0,1,.6-.74c4.17-1.37,7-4.33,9.36-7.86,1.2-1.81,2.39-3.63,3.62-5.43.6-.87.64-.85,0-1.69a10.92,10.92,0,0,0-5.74-4,9.12,9.12,0,0,0-6.3.79l-.75.37a1,1,0,1,1-.9-1.73A12.62,12.62,0,0,1,66.25,39.81Z"/><path class="cls-1" d="M68.4,16.34a1,1,0,0,1,.92,1.4c-.32.87-.67,1.73-1,2.59-.48,1.25-1,2.5-1.46,3.75a.91.91,0,0,1-.9.67,1.66,1.66,0,0,1-.91-.44A1,1,0,0,1,65,23.22c.5-1.25,1-2.5,1.47-3.75l1-2.45A1,1,0,0,1,68.4,16.34Z"/><path class="cls-1" d="M40.7,25.26a1,1,0,0,1-1-.59c-.92-2.09-1.84-4.18-2.74-6.28a1,1,0,1,1,1.87-.81c.92,2.08,1.83,4.15,2.73,6.23A1,1,0,0,1,40.7,25.26Z"/><path class="cls-1" d="M66.71,47.31c.92-.05,1.48.56,1.2,1.31a1,1,0,0,1-.93.64c-1.36,0-3.3.57-4,1.76a1,1,0,0,1-1.67-1,5.15,5.15,0,0,1,3.64-2.6c.15,0,1.17-.07,1.33-.08Z"/><path class="cls-1" d="M82,24.67c.5,0,.88.16,1,.55a1.33,1.33,0,0,1-.07,1A13.55,13.55,0,0,1,81.25,28a1,1,0,0,1-1.31-.09,1,1,0,0,1-.13-1.27,24.36,24.36,0,0,1,1.74-1.78C81.67,24.71,81.91,24.7,82,24.67Z"/><path class="cls-1" d="M27.69,27.64a1.1,1.1,0,0,1-.61.91.89.89,0,0,1-1-.08,21.94,21.94,0,0,1-1.62-1.58,1,1,0,0,1,.08-1.34,1,1,0,0,1,1.35-.08c.54.48,1,1,1.55,1.52A2.14,2.14,0,0,1,27.69,27.64Z"/><path class="cls-1" d="M54.54,15.35c0,.22,0,3.73,0,4a1,1,0,1,1-2.06,0c0-.57,0-4.38,0-4.95a1,1,0,1,1,2,0C54.55,14.7,54.54,15,54.54,15.35Z"/><path class="cls-1" d="M23.18,23.15a1,1,0,0,1-.56,1,.93.93,0,0,1-1.08-.11c-.49-.45-1-.91-1.41-1.4a1,1,0,0,1,0-1.28,1,1,0,0,1,1.29-.21A19.27,19.27,0,0,1,23,22.72,1.06,1.06,0,0,1,23.18,23.15Z"/><path class="cls-1" d="M52.45,7.87c0-.25,0-.49,0-.74a1,1,0,0,1,2-.07c.05.54,0,2.16,0,2.69a1,1,0,0,1-2-.07V7.87Z"/><path class="cls-1" d="M87.26,21.61a1.24,1.24,0,0,1-.18.42,8,8,0,0,1-1,1.06A1,1,0,0,1,84.71,23a1,1,0,0,1-.07-1.31,9.07,9.07,0,0,1,1-1,.93.93,0,0,1,1.12-.1A1,1,0,0,1,87.26,21.61Z"/></svg>