<svg id="Layer_1" data-name="Layer 1" xmlns="http://www.w3.org/2000/svg" viewBox="0 0 100 100"><defs><style>.cls-1{fill:#0071b4;}</style></defs><path class="cls-1" d="M80.82,79.47c3.1,0,6.2,0,9.3,0-2.81-11-5.77-21.85-8.57-32.79-5.49-.06-11,0-16.47,0,1.28,11,2.89,21.85,4.21,32.79,3.09.07,6.18,0,9.28,0,0,2.35,0,4.71,0,7-8.27,0-16.54,0-24.81,0,0-2.35,0-4.71,0-7,3.73,0,7.48,0,11.22,0-1.24-11-2.91-21.86-4.19-32.8-5.45-.07-10.91,0-16.35,0-1.49,10.94-2.89,21.89-4.34,32.84,3.79,0,7.59,0,11.38,0,0,2.34,0,4.68,0,7-8.1,0-16.21,0-24.32,0,0-2.34,0-4.7,0-7H35.8c1.44-11,2.85-21.89,4.34-32.82-5.53,0-11,0-16.58,0C20.78,57.62,17.83,68.53,15,79.48h9.85c0,2.35,0,4.69,0,7-3.16,0-11.73,0-14.89,0,0,.76,0,1.52,0,2.3,26.62,0,58.65,0,85.25,0v-2.3H80.83C80.81,84.17,80.82,81.83,80.82,79.47ZM25.38,48.81c4,0,8.08,0,12.11,0q-.39,3.42-.87,6.85c-4.34,0-8.7,0-13,0C24.16,53.38,24.76,51.1,25.38,48.81ZM22.94,58c4.44-.11,8.91-.14,13.37,0-.15,1.47-.39,2.93-.56,4.4h-14C22.19,61,22.57,59.49,22.94,58Zm-1.81,6.8c4.77-.13,9.55,0,14.34,0-.23,1.46-.43,2.92-.56,4.4-5,0-9.93,0-14.9,0C20.41,67.72,20.81,66.27,21.13,64.81ZM18,77.14c.38-1.92.95-3.79,1.42-5.69,5,0,10.1,0,15.14,0-.24,1.9-.54,3.8-.73,5.7C28.55,77.14,23.27,77.18,18,77.14ZM46.43,48.8c4.06.05,8.13,0,12.2,0,.48,2.23.63,4.52,1,6.77-4.7.25-9.41,0-14.12.11C45.73,53.37,46.09,51.09,46.43,48.8ZM45.2,58c4.92-.1,9.86-.17,14.78,0,.11,1.47.33,2.93.52,4.39-5.28,0-10.56,0-15.84,0C44.8,61,44.92,59.49,45.2,58Zm-1,6.78c5.54-.1,11.08,0,16.62,0,.15,1.47.38,2.93.55,4.42H43.72C43.92,67.71,44.12,66.25,44.22,64.79ZM42.73,77.16c.13-1.9.47-3.79.66-5.68,6.11-.06,12.22,0,18.32,0,.22,1.89.47,3.79.76,5.68C55.89,77.17,49.31,77.16,42.73,77.16ZM67.58,48.83q6.08,0,12.14,0c.61,2.28,1.25,4.55,1.79,6.86-4.35,0-8.7,0-13,0C68.14,53.38,67.91,51.1,67.58,48.83Zm1.17,9.22c4.47-.18,9-.19,13.43,0,.36,1.46.74,2.92,1.14,4.39-4.65,0-9.28,0-13.9,0C69.16,61,69,59.51,68.75,58.05Zm1,6.7c4.74,0,9.49,0,14.23,0,.35,1.46.76,2.92,1.12,4.4-4.92,0-9.85,0-14.77,0A44.38,44.38,0,0,1,69.72,64.75Zm1.55,12.38c-.15-1.91-.52-3.78-.7-5.67H85.7c.49,1.9,1,3.81,1.49,5.71C81.89,77.13,76.58,77.2,71.27,77.13Z"/><path class="cls-1" d="M20,34.35a8,8,0,1,1,8-8A8,8,0,0,1,20,34.35Zm0-13.22a5.25,5.25,0,1,0,5.25,5.25A5.25,5.25,0,0,0,20,21.13Z"/><path class="cls-1" d="M20,16.49a1.23,1.23,0,0,1-1.22-1.23V12.39a1.23,1.23,0,1,1,2.45,0v2.87A1.23,1.23,0,0,1,20,16.49Z"/><path class="cls-1" d="M12.16,19.74a1.21,1.21,0,0,1-.87-.35l-2-2A1.23,1.23,0,1,1,11,15.62l2,2a1.23,1.23,0,0,1,0,1.74A1.2,1.2,0,0,1,12.16,19.74Z"/><path class="cls-1" d="M8.9,27.6H6a1.23,1.23,0,0,1,0-2.45H8.9a1.23,1.23,0,1,1,0,2.45Z"/><path class="cls-1" d="M10.12,37.49a1.23,1.23,0,0,1-.87-2.09l2-2A1.22,1.22,0,0,1,13,35.1l-2,2A1.22,1.22,0,0,1,10.12,37.49Z"/><path class="cls-1" d="M20,41.59a1.23,1.23,0,0,1-1.22-1.23V37.49a1.23,1.23,0,1,1,2.45,0v2.87A1.23,1.23,0,0,1,20,41.59Z"/><path class="cls-1" d="M29.9,37.49a1.21,1.21,0,0,1-.86-.36l-2-2a1.23,1.23,0,1,1,1.74-1.73l2,2a1.23,1.23,0,0,1-.87,2.09Z"/><path class="cls-1" d="M34,27.6H31.12a1.23,1.23,0,0,1,0-2.45H34a1.23,1.23,0,1,1,0,2.45Z"/><path class="cls-1" d="M27.87,19.74A1.22,1.22,0,0,1,27,17.65l2-2a1.22,1.22,0,1,1,1.73,1.73l-2,2A1.22,1.22,0,0,1,27.87,19.74Z"/></svg>