<?xml version="1.0" encoding="utf-8"?>
<!-- Generator: Adobe Illustrator 25.4.1, SVG Export Plug-In . SVG Version: 6.00 Build 0)  -->
<svg version="1.1" id="Layer_1" xmlns="http://www.w3.org/2000/svg" xmlns:xlink="http://www.w3.org/1999/xlink" x="0px" y="0px"
	 viewBox="0 0 192.4 60" style="enable-background:new 0 0 192.4 60;" xml:space="preserve">
<style type="text/css">
	.st0{fill:url(#SVGID_1_);}
	.st1{fill:url(#SVGID_00000052817912337383667820000002904927175559379584_);}
	.st2{fill:url(#SVGID_00000173863985601970485840000000321013465531374480_);}
	.st3{fill:url(#SVGID_00000052797122633232256590000009330311564667832481_);}
	.st4{fill:url(#SVGID_00000112611628783333035170000004847438966516770481_);}
	.st5{fill:url(#SVGID_00000160871040847735706170000011872677060720747444_);}
	.st6{fill:url(#SVGID_00000052807862505594047520000011217748662009629338_);}
	.st7{fill:url(#SVGID_00000059301543588019902800000014338102836810401408_);}
	.st8{fill:url(#SVGID_00000150093480277255936220000009199394996735172791_);}
	.st9{fill:#127D3F;}
	.st10{fill:#0D80BC;}
	.st11{fill:#34351D;}
	.st12{font-family:'CiceroMediumW00-Regular';}
	.st13{font-size:6.3405px;}
</style>
<g id="Layer_2_00000127746979407106292940000004658783353354106519_">
</g>
<g id="Layer_1_00000167379315809581434030000017557726396838535601_">
	
		<linearGradient id="SVGID_1_" gradientUnits="userSpaceOnUse" x1="79.2573" y1="840.7166" x2="190.1579" y2="840.7166" gradientTransform="matrix(1 0 0 1 0 -786)">
		<stop  offset="0" style="stop-color:#F6E243"/>
		<stop  offset="0.3602" style="stop-color:#F8D937"/>
		<stop  offset="1" style="stop-color:#FFC416"/>
	</linearGradient>
	<path class="st0" d="M188.4,59.1H81c-1,0-1.8-0.8-1.8-1.8V52c0-1,0.8-1.8,1.8-1.8h107.4c1,0,1.8,0.8,1.8,1.8v5.3
		C190.2,58.3,189.4,59.1,188.4,59.1z"/>
	<g>
		
			<radialGradient id="SVGID_00000067230070465418482550000016236279696534334638_" cx="23.9313" cy="807.5908" r="6.6446" gradientTransform="matrix(1 0 0 1 0 -786)" gradientUnits="userSpaceOnUse">
			<stop  offset="0.1485" style="stop-color:#F6E243"/>
			<stop  offset="0.4552" style="stop-color:#F8D937"/>
			<stop  offset="1" style="stop-color:#FFC416"/>
		</radialGradient>
		<path style="fill:url(#SVGID_00000067230070465418482550000016236279696534334638_);" d="M36.2,17.1L18.4,34.7
			c-1.8-1.8-3.2-4.1-3.7-6.8c-1.3-6.8,3.2-13.3,10.1-14.6C29.2,12.5,33.4,14.1,36.2,17.1z"/>
		
			<linearGradient id="SVGID_00000047776297267859404450000000840704421573973913_" gradientUnits="userSpaceOnUse" x1="18.3966" y1="792.2883" x2="22.4069" y2="792.2883" gradientTransform="matrix(1 0 0 1 0 -786)">
			<stop  offset="0.1485" style="stop-color:#F6E243"/>
			<stop  offset="0.4552" style="stop-color:#F8D937"/>
			<stop  offset="1" style="stop-color:#FFC416"/>
		</linearGradient>
		<path style="fill:url(#SVGID_00000047776297267859404450000000840704421573973913_);" d="M21.1,6c-1-2.5-2.2-4.5-2.6-4.3
			c-0.4,0.2,0.2,2.3,1.2,4.9c1,2.5,2.2,4.5,2.6,4.3C22.7,10.7,22.1,8.6,21.1,6z"/>
		
			<linearGradient id="SVGID_00000051354994138003882770000011772123925269158311_" gradientUnits="userSpaceOnUse" x1="9.4769" y1="797.9299" x2="16.1321" y2="797.9299" gradientTransform="matrix(1 0 0 1 0 -786)">
			<stop  offset="0.1485" style="stop-color:#F6E243"/>
			<stop  offset="0.4552" style="stop-color:#F8D937"/>
			<stop  offset="1" style="stop-color:#FFC416"/>
		</linearGradient>
		<path style="fill:url(#SVGID_00000051354994138003882770000011772123925269158311_);" d="M13.4,11.4c-1.8-2.1-3.5-3.5-3.8-3.3
			c-0.3,0.3,0.9,2.2,2.7,4.2s3.5,3.5,3.8,3.3C16.4,15.4,15.2,13.5,13.4,11.4z"/>
		
			<linearGradient id="SVGID_00000007425256699813102880000016705034380211319741_" gradientUnits="userSpaceOnUse" x1="2.9257" y1="807.7231" x2="12.5593" y2="807.7231" gradientTransform="matrix(1 0 0 1 0 -786)">
			<stop  offset="0.1485" style="stop-color:#F6E243"/>
			<stop  offset="0.4552" style="stop-color:#F8D937"/>
			<stop  offset="1" style="stop-color:#FFC416"/>
		</linearGradient>
		<path style="fill:url(#SVGID_00000007425256699813102880000016705034380211319741_);" d="M7.9,21c-2.7-0.7-4.9-1-5-0.6
			c-0.1,0.4,2,1.3,4.6,2s4.9,1,5,0.6C12.7,22.6,10.6,21.7,7.9,21z"/>
		
			<linearGradient id="SVGID_00000127020799975905648220000009323791783242532255_" gradientUnits="userSpaceOnUse" x1="3.7242" y1="816.6312" x2="13.3605" y2="816.6312" gradientTransform="matrix(1 0 0 1 0 -786)">
			<stop  offset="0.1485" style="stop-color:#F6E243"/>
			<stop  offset="0.4552" style="stop-color:#F8D937"/>
			<stop  offset="1" style="stop-color:#FFC416"/>
		</linearGradient>
		<path style="fill:url(#SVGID_00000127020799975905648220000009323791783242532255_);" d="M8.4,29.9c-2.7,0.7-4.7,1.6-4.6,2
			c0.1,0.4,2.3,0.1,5-0.6c2.7-0.7,4.7-1.6,4.6-2C13.3,28.9,11,29.2,8.4,29.9z"/>
		
			<linearGradient id="SVGID_00000088120474551367370350000014341647796733677445_" gradientUnits="userSpaceOnUse" x1="8.1172" y1="823.9187" x2="15.4752" y2="823.9187" gradientTransform="matrix(1 0 0 1 0 -786)">
			<stop  offset="0.1485" style="stop-color:#F6E243"/>
			<stop  offset="0.4552" style="stop-color:#F8D937"/>
			<stop  offset="1" style="stop-color:#FFC416"/>
		</linearGradient>
		<path style="fill:url(#SVGID_00000088120474551367370350000014341647796733677445_);" d="M11.3,37.4c-2,1.9-3.4,3.6-3.1,3.9
			c0.3,0.3,2.1-1,4.1-2.9s3.4-3.6,3.1-3.9C15.2,34.2,13.3,35.5,11.3,37.4z"/>
		
			<linearGradient id="SVGID_00000088825456859207761000000011300493777725205136_" gradientUnits="userSpaceOnUse" x1="36.542" y1="797.4933" x2="43.6678" y2="797.4933" gradientTransform="matrix(1 0 0 1 0 -786)">
			<stop  offset="0.1485" style="stop-color:#F6E243"/>
			<stop  offset="0.4552" style="stop-color:#F8D937"/>
			<stop  offset="1" style="stop-color:#FFC416"/>
		</linearGradient>
		<path style="fill:url(#SVGID_00000088825456859207761000000011300493777725205136_);" d="M40.6,12c1.9-1.9,3.3-3.8,3-4
			c-0.3-0.3-2.1,1.1-4,3c-1.9,1.9-3.3,3.8-3,4C36.9,15.3,38.7,14,40.6,12z"/>
		
			<linearGradient id="SVGID_00000089545458651552408860000001441770741990262193_" gradientUnits="userSpaceOnUse" x1="30.1628" y1="792.1082" x2="33.0171" y2="792.1082" gradientTransform="matrix(1 0 0 1 0 -786)">
			<stop  offset="0.1485" style="stop-color:#F6E243"/>
			<stop  offset="0.4552" style="stop-color:#F8D937"/>
			<stop  offset="1" style="stop-color:#FFC416"/>
		</linearGradient>
		<path style="fill:url(#SVGID_00000089545458651552408860000001441770741990262193_);" d="M32.3,6.3c0.7-2.7,0.9-4.9,0.5-5
			c-0.4-0.1-1.3,2-1.9,4.6s-0.9,4.9-0.5,5C30.7,11,31.6,9,32.3,6.3z"/>
	</g>
	<path d="M29.8,22c-0.1,1.4-0.2,2.9-0.2,4.3L29.8,22L29.8,22z"/>
	<path class="st9" d="M49.8,47.2c-0.5-1.4-1-2.7-1.6-4.1c-0.5-1.4-1.1-2.7-1.6-4.1c-0.7,0-1.5,0-2.3-0.1c-0.8,0-1.5,0-2.3,0
		c-0.8,0-1.6,0-2.4,0s-1.5,0-2.4,0.1c-0.5,1.4-1,2.7-1.4,4.1c-0.5,1.4-0.9,2.7-1.4,4.1h-3.7c1.8-4.1,3.6-8.3,5.3-12.4
		c1.7-4.1,3.4-8.3,5-12.5h3.7c1.1,2.9,2.2,5.8,3.4,8.6c1.1,2.8,2.3,5.7,3.5,8.5c0.4,0.8,0.7,1.6,1.1,2.5c0.4,0.9,0.8,1.6,1.4,2.3
		c0.3,0.4,0.6,0.8,0.9,1c0.3,0.2,0.8,0.4,1.3,0.5v1.4L49.8,47.2L49.8,47.2z M41.9,26.7c-0.7,1.6-1.3,3.3-1.9,4.9
		c-0.6,1.6-1.2,3.3-1.8,4.9c0.7,0.1,1.3,0.1,1.9,0.1c0.6,0,1.3,0,2,0c0.6,0,1.2,0,1.8,0c0.6,0,1.2,0,1.8-0.1L41.9,26.7z"/>
	<path class="st9" d="M69.4,29.4c-1.3,2.4-2.6,4.8-3.9,7.2v10.5h-4.7c0-1.5,0.1-2.9,0.2-4.4c0.1-1.5,0.2-2.9,0.2-4.4
		c0-0.3,0-0.5,0-0.8c0-0.3,0-0.6,0-0.8c-0.4-0.8-0.9-1.7-1.4-2.7c-0.5-0.9-1-1.9-1.6-2.8c-0.6-0.9-1.1-1.8-1.7-2.7
		c-0.6-0.9-1.2-1.7-1.7-2.5c-0.2-0.3-0.4-0.6-0.6-0.8s-0.4-0.4-0.6-0.5c-0.2-0.1-0.4-0.3-0.7-0.3c-0.3-0.1-0.6-0.2-1-0.2l-0.1-1.2
		c1.1-0.2,2.1-0.3,3.1-0.4c1-0.1,2.1-0.1,3.1-0.1l6.5,11.5c1-1.9,1.9-3.8,2.7-5.8c0.8-2,1.6-3.9,2.4-5.7h3.8
		C72,24.7,70.7,27.1,69.4,29.4z"/>
	<path class="st10" d="M94.6,43.2c-0.5,0.9-1.2,1.7-2,2.3c-0.8,0.6-1.8,1-2.9,1.3c-1.1,0.3-2.2,0.4-3.4,0.4c-1.3,0-2.5-0.1-3.7-0.4
		c-1.2-0.3-2.3-0.8-3.4-1.5l0.8-3.6c0.8,1.1,1.7,1.9,2.8,2.4c1,0.5,2.3,0.8,3.6,0.8c1.3,0,2.3-0.3,3.1-1c0.8-0.7,1.2-1.6,1.2-2.9
		c0-1.1-0.3-1.9-0.9-2.5c-0.6-0.6-1.3-1.1-2.1-1.4c-0.8-0.4-1.8-0.7-2.7-1c-1-0.3-1.9-0.7-2.7-1.1c-0.8-0.5-1.6-1.1-2.1-2
		c-0.6-0.8-0.9-1.9-0.9-3.3c0-1.3,0.3-2.3,0.8-3.3c0.5-0.9,1.2-1.7,2.1-2.3c0.9-0.6,1.9-1,3-1.3c1.1-0.3,2.2-0.4,3.4-0.4
		c1,0,1.9,0.1,2.9,0.2c0.9,0.2,1.8,0.5,2.7,0.9l-0.6,5.2h-1.2c-0.1-0.1-0.1-0.3-0.1-0.4c0-0.1,0-0.3-0.1-0.4c-0.3-1.2-0.7-2-1.3-2.5
		c-0.6-0.5-1.5-0.7-2.7-0.7c-0.6,0-1.1,0.1-1.7,0.2c-0.5,0.2-1,0.4-1.4,0.7c-0.4,0.3-0.7,0.7-0.9,1.2c-0.2,0.5-0.3,1-0.3,1.6
		c0,1,0.3,1.8,0.9,2.4c0.6,0.6,1.3,1,2.1,1.4c0.8,0.4,1.8,0.7,2.7,1c1,0.3,1.9,0.7,2.7,1.2c0.8,0.5,1.6,1.2,2.1,2
		c0.6,0.9,0.9,2,0.9,3.5C95.3,41.1,95.1,42.2,94.6,43.2z"/>
	<path class="st10" d="M99,30.2c0.6-1.6,1.5-3,2.7-4.1c1.2-1.1,2.5-2,4.1-2.7c1.6-0.6,3.4-1,5.4-1c1.8,0,3.5,0.3,5,0.9
		c1.5,0.6,2.7,1.4,3.8,2.4c1,1,1.8,2.3,2.4,3.7c0.6,1.5,0.9,3.1,0.9,4.8c0,1.9-0.3,3.6-0.9,5.2c-0.6,1.6-1.5,3-2.7,4.1
		c-1.2,1.1-2.5,2-4.1,2.7s-3.4,1-5.4,1c-1.8,0-3.5-0.3-5-0.9c-1.5-0.6-2.7-1.4-3.8-2.4c-1-1-1.8-2.3-2.4-3.7
		c-0.6-1.5-0.9-3.1-0.9-4.8C98.1,33.5,98.4,31.8,99,30.2z M103.5,38.3c0.3,1.2,0.7,2.3,1.3,3.3c0.6,1,1.4,1.8,2.4,2.4
		c1,0.6,2.1,0.9,3.5,0.9c1.4,0,2.6-0.3,3.6-0.9c1-0.6,1.7-1.4,2.3-2.4c0.6-1,1-2.1,1.3-3.3c0.3-1.2,0.4-2.4,0.4-3.5
		c0-1.1-0.1-2.3-0.4-3.5c-0.3-1.2-0.7-2.3-1.3-3.3c-0.6-1-1.4-1.8-2.4-2.4c-1-0.6-2.1-0.9-3.5-0.9c-1.4,0-2.6,0.3-3.5,0.9
		c-1,0.6-1.8,1.4-2.4,2.4c-0.6,1-1,2.1-1.3,3.3c-0.3,1.2-0.4,2.4-0.4,3.5C103.1,36,103.2,37.1,103.5,38.3z"/>
	<path class="st10" d="M141.1,47.2c-2.4,0-4.7,0-7.1,0c-2.4,0-4.7,0-7.1,0c0.2-3.1,0.3-6.1,0.4-9.2c0.1-3,0.1-6.1,0.1-9.2
		c0-0.8,0-1.4-0.1-2c-0.1-0.6-0.2-1.1-0.5-1.4c-0.3-0.4-0.6-0.7-1.1-0.9c-0.5-0.2-1.2-0.3-2.1-0.3V23c1.1-0.2,2.1-0.4,3.2-0.5
		c1.1-0.1,2.2-0.2,3.3-0.2c0.3,0,0.5,0,0.7,0c0.3,0,0.5,0,0.8,0c0,3.3,0,6.5,0,9.7c0,3.2,0,6.4,0,9.7c0,0.6,0,1.1,0.1,1.5
		c0.1,0.4,0.2,0.7,0.4,1c0.2,0.2,0.5,0.4,0.9,0.5c0.4,0.1,0.9,0.2,1.5,0.2h1.4c0.7,0,1.3,0,1.8-0.1c0.5,0,0.9-0.2,1.2-0.4
		c0.3-0.2,0.6-0.5,0.8-1c0.2-0.4,0.4-1,0.5-1.8h1.4L141.1,47.2z"/>
	<path d="M29.4,29.9c0,0.6-0.1,1.3-0.1,2c0,0,0,0,0,0l0-0.6c0.1-1.6,0.2-3.2,0.3-4.8L29.4,29.9z"/>
	<path class="st9" d="M29.9,21.4c0,0.1,0,0.2,0,0.3c-0.1,1.4-0.2,2.9-0.2,4.3c0,0.1,0,0.2,0,0.3l-0.2,3.4c0,0.6-0.1,1.3-0.1,2.1
		c-0.1,1.6-0.1,3.6-0.2,5.9c-0.1,2.3-0.2,3.9-0.4,4.7c-0.1,0.6-0.3,1.2-0.6,1.7c-0.2,0.4-0.5,0.8-0.9,1.2c-0.4,0.4-0.9,0.8-1.5,1.1
		c-0.7,0.4-1.6,0.7-2.4,0.9c-1,0.2-2,0.4-3.1,0.4c-1.9,0-4.1-0.3-6.6-0.8c-0.1-1.4-0.2-2.9-0.3-4.4c2.7,0.9,6.7,2.2,9.2,0.2
		c2.4-1.9,1.9-6.4,2-9.2c0.1-1.9,0-3.2,0.1-5.5c0-1,0-2,0.1-3c0-0.7-0.3-1.3-1-1.6c-0.5-0.2-1.2-0.3-2.1-0.4l0.1-1.4
		c1.1-0.2,2.2-0.1,3.3-0.2c1.1,0,2.2,0,3.3,0L29.9,21.4z"/>
	<path class="st10" d="M162.3,47.2c-0.5-1.4-1-2.7-1.6-4.1c-0.5-1.4-1.1-2.7-1.6-4.1c-0.7,0-1.5,0-2.3-0.1c-0.8,0-1.5,0-2.3,0
		c-0.8,0-1.6,0-2.4,0c-0.7,0-1.5,0-2.4,0.1c-0.5,1.4-1,2.7-1.4,4.1c-0.5,1.4-0.9,2.7-1.4,4.1h-3.7c1.8-4.1,3.6-8.3,5.3-12.4
		c1.7-4.1,3.4-8.3,5-12.5h3.7c1.1,2.9,2.2,5.8,3.4,8.6c1.1,2.8,2.3,5.7,3.5,8.5c0.4,0.8,0.7,1.6,1.1,2.5c0.4,0.9,0.8,1.6,1.4,2.3
		c0.3,0.4,0.6,0.8,0.9,1c0.3,0.2,0.8,0.4,1.3,0.5v1.4L162.3,47.2L162.3,47.2z M154.4,26.7c-0.7,1.6-1.3,3.3-1.9,4.9
		c-0.6,1.6-1.2,3.3-1.8,4.9c0.7,0.1,1.3,0.1,1.9,0.1c0.6,0,1.3,0,2,0c0.6,0,1.2,0,1.8,0c0.6,0,1.2,0,1.8-0.1L154.4,26.7z"/>
	<path class="st10" d="M183.3,47.2c-1-1.9-2.1-3.7-3.1-5.6c-1-1.8-2.1-3.7-3.3-5.5H176v11.1h-4.7c0.1-3.2,0.3-6.4,0.4-9.6
		s0.2-6.3,0.2-9.6c0-0.6,0-1.1-0.1-1.7c-0.1-0.5-0.2-1-0.5-1.4c-0.2-0.4-0.6-0.7-1-1c-0.4-0.2-1-0.4-1.7-0.4v-1.3
		c1.7,0,3.5,0,5.1-0.1c1.7,0,3.4,0,5.1,0c0.7,0,1.4,0,2.1,0.1c0.7,0.1,1.4,0.2,2,0.5c1.2,0.4,2.2,1.2,2.8,2.2c0.7,1,1,2.2,1,3.5
		c0,1.7-0.5,3.1-1.6,4.3c-1,1.1-2.4,1.9-4,2.2c0.4,0.7,0.7,1.3,1.1,1.9c0.4,0.6,0.8,1.3,1.1,1.9c0.2,0.3,0.5,0.8,0.9,1.5
		c0.4,0.7,0.8,1.4,1.2,2.1c0.5,0.7,0.9,1.3,1.3,1.9c0.4,0.6,0.8,0.9,1.1,1.1c0.6,0.3,1.2,0.4,2,0.4v1.3L183.3,47.2L183.3,47.2z
		 M180.9,25.7c-0.8-0.7-2-1-3.4-1H176V34h1.1c1.6,0,2.9-0.4,3.7-1.2c0.9-0.8,1.3-2.1,1.3-3.8C182.1,27.5,181.7,26.4,180.9,25.7z"/>
	<text transform="matrix(1 0 0 1 82.3257 56.6055)" class="st11 st12 st13">Energy Management Systems Pvt.Ltd</text>
</g>
</svg>
