<svg id="Layer_1" data-name="Layer 1" xmlns="http://www.w3.org/2000/svg" xmlns:xlink="http://www.w3.org/1999/xlink" width="192.4" height="60" viewBox="0 0 192.4 60"><defs><style>.cls-1{fill:none;}.cls-2{clip-path:url(#clip-path);}.cls-3{fill:#f6e243;}.cls-4{fill:#f6e142;}.cls-5{fill:#f6e041;}.cls-6{fill:#f7e040;}.cls-7{fill:#f7df3f;}.cls-8{fill:#f7de3e;}.cls-9{fill:#f7dd3c;}.cls-10{fill:#f7dc3b;}.cls-11{fill:#f7db3a;}.cls-12{fill:#f8db39;}.cls-13{fill:#f8da38;}.cls-14{fill:#f8d937;}.cls-15{fill:#f8d836;}.cls-16{fill:#f8d835;}.cls-17{fill:#f9d734;}.cls-18{fill:#f9d633;}.cls-19{fill:#f9d632;}.cls-20{fill:#f9d531;}.cls-21{fill:#fad430;}.cls-22{fill:#fad42f;}.cls-23{fill:#fad32e;}.cls-24{fill:#fad22d;}.cls-25{fill:#fad22c;}.cls-26{fill:#fbd12b;}.cls-27{fill:#fbd02a;}.cls-28{fill:#fbd029;}.cls-29{fill:#fbcf28;}.cls-30{fill:#fccf27;}.cls-31{fill:#fcce25;}.cls-32{fill:#fccd24;}.cls-33{fill:#fccd23;}.cls-34{fill:#fccc22;}.cls-35{fill:#fdcb21;}.cls-36{fill:#fdcb20;}.cls-37{fill:#fdca1f;}.cls-38{fill:#fdc91e;}.cls-39{fill:#fdc91d;}.cls-40{fill:#fec81c;}.cls-41{fill:#fec71b;}.cls-42{fill:#fec71a;}.cls-43{fill:#fec619;}.cls-44{fill:#ffc518;}.cls-45{fill:#ffc517;}.cls-46{fill:#ffc416;}.cls-47{clip-path:url(#clip-path-2);}.cls-48{clip-path:url(#clip-path-3);}.cls-49{clip-path:url(#clip-path-4);}.cls-50{clip-path:url(#clip-path-5);}.cls-51{clip-path:url(#clip-path-6);}.cls-52{clip-path:url(#clip-path-7);}.cls-53{clip-path:url(#clip-path-8);}.cls-54{clip-path:url(#clip-path-9);}.cls-55{fill:#127d3f;}.cls-56{fill:#0d80bc;}.cls-57{isolation:isolate;}.cls-58{fill:#34351d;}</style><clipPath id="clip-path"><path class="cls-1" d="M188.4,59.1H81a1.7925,1.7925,0,0,1-1.8-1.8V52A1.7925,1.7925,0,0,1,81,50.2H188.4a1.7925,1.7925,0,0,1,1.8,1.8v5.3A1.7925,1.7925,0,0,1,188.4,59.1Z"/></clipPath><clipPath id="clip-path-2"><path class="cls-1" d="M36.2,17.1,18.4,34.7a12.9988,12.9988,0,0,1-3.7-6.8A12.53,12.53,0,0,1,36.2,17.1Z"/></clipPath><clipPath id="clip-path-3"><path class="cls-1" d="M21.1,6c-1-2.5-2.2-4.5-2.6-4.3s.2,2.3,1.2,4.9c1,2.5,2.2,4.5,2.6,4.3S22.1,8.6,21.1,6Z"/></clipPath><clipPath id="clip-path-4"><path class="cls-1" d="M13.4,11.4C11.6,9.3,9.9,7.9,9.6,8.1c-.3.3.9,2.2,2.7,4.2s3.5,3.5,3.8,3.3S15.2,13.5,13.4,11.4Z"/></clipPath><clipPath id="clip-path-5"><path class="cls-1" d="M7.9,21c-2.7-.7-4.9-1-5-.6s2,1.3,4.6,2,4.9,1,5,.6C12.7,22.6,10.6,21.7,7.9,21Z"/></clipPath><clipPath id="clip-path-6"><path class="cls-1" d="M8.4,29.9c-2.7.7-4.7,1.6-4.6,2s2.3.1,5-.6,4.7-1.6,4.6-2S11,29.2,8.4,29.9Z"/></clipPath><clipPath id="clip-path-7"><path class="cls-1" d="M11.3,37.4c-2,1.9-3.4,3.6-3.1,3.9s2.1-1,4.1-2.9,3.4-3.6,3.1-3.9C15.2,34.2,13.3,35.5,11.3,37.4Z"/></clipPath><clipPath id="clip-path-8"><path class="cls-1" d="M40.6,12c1.9-1.9,3.3-3.8,3-4-.3-.3-2.1,1.1-4,3s-3.3,3.8-3,4C36.9,15.3,38.7,14,40.6,12Z"/></clipPath><clipPath id="clip-path-9"><path class="cls-1" d="M32.3,6.3c.7-2.7.9-4.9.5-5s-1.3,2-1.9,4.6-.9,4.9-.5,5C30.7,11,31.6,9,32.3,6.3Z"/></clipPath></defs><g id="Layer_1-2" data-name="Layer 1"><g class="cls-2"><rect class="cls-3" x="79.2" y="50.2" width="3.3319" height="8.9"/><rect class="cls-4" x="82.5318" y="50.2" width="3.3319" height="8.9"/><rect class="cls-5" x="85.8637" y="50.2" width="3.3319" height="8.9"/><rect class="cls-6" x="89.1955" y="50.2" width="3.3319" height="8.9"/><rect class="cls-7" x="92.5274" y="50.2" width="3.3319" height="8.9"/><rect class="cls-8" x="95.8592" y="50.2" width="3.3319" height="8.9"/><rect class="cls-9" x="99.1911" y="50.2" width="3.3319" height="8.9"/><rect class="cls-10" x="102.5229" y="50.2" width="3.3319" height="8.9"/><rect class="cls-11" x="105.8548" y="50.2" width="3.3319" height="8.9"/><rect class="cls-12" x="109.1866" y="50.2" width="3.3319" height="8.9"/><rect class="cls-13" x="112.5185" y="50.2" width="3.3319" height="8.9"/><rect class="cls-14" x="115.8503" y="50.2" width="3.3319" height="8.9"/><rect class="cls-14" x="119.1822" y="50.2" width="2.1521" height="8.9"/><rect class="cls-15" x="121.3343" y="50.2" width="2.1521" height="8.9"/><rect class="cls-16" x="123.4863" y="50.2" width="2.1521" height="8.9"/><rect class="cls-17" x="125.6384" y="50.2" width="2.1521" height="8.9"/><rect class="cls-18" x="127.7904" y="50.2" width="2.1521" height="8.9"/><rect class="cls-19" x="129.9425" y="50.2" width="2.1521" height="8.9"/><rect class="cls-20" x="132.0945" y="50.2" width="2.1521" height="8.9"/><rect class="cls-21" x="134.2466" y="50.2" width="2.1521" height="8.9"/><rect class="cls-22" x="136.3986" y="50.2" width="2.1521" height="8.9"/><rect class="cls-23" x="138.5507" y="50.2" width="2.1521" height="8.9"/><rect class="cls-24" x="140.7027" y="50.2" width="2.1521" height="8.9"/><rect class="cls-25" x="142.8548" y="50.2" width="2.1521" height="8.9"/><rect class="cls-26" x="145.0069" y="50.2" width="2.1521" height="8.9"/><rect class="cls-27" x="147.1589" y="50.2" width="2.1521" height="8.9"/><rect class="cls-28" x="149.311" y="50.2" width="2.1521" height="8.9"/><rect class="cls-29" x="151.463" y="50.2" width="2.1521" height="8.9"/><rect class="cls-30" x="153.6151" y="50.2" width="2.1521" height="8.9"/><rect class="cls-31" x="155.7671" y="50.2" width="2.1521" height="8.9"/><rect class="cls-32" x="157.9192" y="50.2" width="2.1521" height="8.9"/><rect class="cls-33" x="160.0712" y="50.2" width="2.1521" height="8.9"/><rect class="cls-34" x="162.2233" y="50.2" width="2.1521" height="8.9"/><rect class="cls-35" x="164.3753" y="50.2" width="2.1521" height="8.9"/><rect class="cls-36" x="166.5274" y="50.2" width="2.1521" height="8.9"/><rect class="cls-37" x="168.6795" y="50.2" width="2.1521" height="8.9"/><rect class="cls-38" x="170.8315" y="50.2" width="2.1521" height="8.9"/><rect class="cls-39" x="172.9836" y="50.2" width="2.1521" height="8.9"/><rect class="cls-40" x="175.1356" y="50.2" width="2.1521" height="8.9"/><rect class="cls-41" x="177.2877" y="50.2" width="2.1521" height="8.9"/><rect class="cls-42" x="179.4397" y="50.2" width="2.1521" height="8.9"/><rect class="cls-43" x="181.5918" y="50.2" width="2.1521" height="8.9"/><rect class="cls-44" x="183.7438" y="50.2" width="2.1521" height="8.9"/><rect class="cls-45" x="185.8959" y="50.2" width="2.1521" height="8.9"/><rect class="cls-46" x="188.0479" y="50.2" width="2.1521" height="8.9"/></g><g class="cls-47"><rect class="cls-46" x="13.4" y="12.5" width="22.8" height="22.2"/><circle class="cls-46" cx="23.9313" cy="21.5908" r="6.6446"/><circle class="cls-45" cx="23.9313" cy="21.5908" r="6.5349"/><circle class="cls-44" cx="23.9313" cy="21.5908" r="6.4252"/><circle class="cls-43" cx="23.9313" cy="21.5908" r="6.3155"/><circle class="cls-42" cx="23.9313" cy="21.5908" r="6.2058"/><circle class="cls-41" cx="23.9313" cy="21.5908" r="6.0961"/><circle class="cls-40" cx="23.9313" cy="21.5908" r="5.9864"/><circle class="cls-39" cx="23.9313" cy="21.5908" r="5.8767"/><circle class="cls-38" cx="23.9313" cy="21.5908" r="5.767"/><circle class="cls-37" cx="23.9313" cy="21.5908" r="5.6573"/><circle class="cls-36" cx="23.9313" cy="21.5908" r="5.5476"/><circle class="cls-35" cx="23.9313" cy="21.5908" r="5.4379"/><circle class="cls-34" cx="23.9313" cy="21.5908" r="5.3282"/><circle class="cls-33" cx="23.9313" cy="21.5908" r="5.2185"/><circle class="cls-32" cx="23.9313" cy="21.5908" r="5.1089"/><circle class="cls-31" cx="23.9313" cy="21.5908" r="4.9992"/><circle class="cls-30" cx="23.9313" cy="21.5908" r="4.8895"/><circle class="cls-29" cx="23.9313" cy="21.5908" r="4.7798"/><circle class="cls-28" cx="23.9313" cy="21.5908" r="4.6701"/><circle class="cls-27" cx="23.9313" cy="21.5908" r="4.5604"/><circle class="cls-26" cx="23.9313" cy="21.5908" r="4.4507"/><circle class="cls-25" cx="23.9313" cy="21.5908" r="4.341"/><circle class="cls-24" cx="23.9313" cy="21.5908" r="4.2313"/><circle class="cls-23" cx="23.9313" cy="21.5908" r="4.1216"/><circle class="cls-22" cx="23.9313" cy="21.5908" r="4.0119"/><circle class="cls-21" cx="23.9313" cy="21.5908" r="3.9022"/><circle class="cls-20" cx="23.9313" cy="21.5908" r="3.7925"/><circle class="cls-19" cx="23.9313" cy="21.5908" r="3.6828"/><circle class="cls-18" cx="23.9313" cy="21.5908" r="3.5731"/><circle class="cls-17" cx="23.9313" cy="21.5908" r="3.4634"/><circle class="cls-16" cx="23.9313" cy="21.5908" r="3.3537"/><circle class="cls-15" cx="23.9313" cy="21.5908" r="3.244"/><circle class="cls-14" cx="23.9313" cy="21.5908" r="3.1343"/><circle class="cls-14" cx="23.9313" cy="21.5908" r="3.0246"/><circle class="cls-13" cx="23.9313" cy="21.5908" r="2.8548"/><circle class="cls-12" cx="23.9313" cy="21.5908" r="2.685"/><circle class="cls-11" cx="23.9313" cy="21.5908" r="2.5151"/><circle class="cls-10" cx="23.9313" cy="21.5908" r="2.3453"/><circle class="cls-9" cx="23.9313" cy="21.5908" r="2.1755"/><circle class="cls-8" cx="23.9313" cy="21.5908" r="2.0057"/><circle class="cls-7" cx="23.9313" cy="21.5908" r="1.8358"/><circle class="cls-6" cx="23.9313" cy="21.5908" r="1.666"/><circle class="cls-5" cx="23.9313" cy="21.5908" r="1.4962"/><circle class="cls-4" cx="23.9313" cy="21.5908" r="1.3264"/><circle class="cls-3" cx="23.9313" cy="21.5908" r="1.1565"/></g><g class="cls-48"><rect class="cls-3" x="18.1" y="1.5" width="0.8921" height="9.6"/><rect class="cls-3" x="18.9921" y="1.5" width="0.1025" height="9.6"/><rect class="cls-4" x="19.0946" y="1.5" width="0.1025" height="9.6"/><rect class="cls-5" x="19.1971" y="1.5" width="0.1025" height="9.6"/><rect class="cls-6" x="19.2996" y="1.5" width="0.1025" height="9.6"/><rect class="cls-7" x="19.4021" y="1.5" width="0.1025" height="9.6"/><rect class="cls-8" x="19.5046" y="1.5" width="0.1025" height="9.6"/><rect class="cls-9" x="19.6071" y="1.5" width="0.1025" height="9.6"/><rect class="cls-10" x="19.7096" y="1.5" width="0.1025" height="9.6"/><rect class="cls-11" x="19.8121" y="1.5" width="0.1025" height="9.6"/><rect class="cls-12" x="19.9146" y="1.5" width="0.1025" height="9.6"/><rect class="cls-13" x="20.0171" y="1.5" width="0.1025" height="9.6"/><rect class="cls-14" x="20.1196" y="1.5" width="0.1025" height="9.6"/><rect class="cls-14" x="20.2221" y="1.5" width="0.0662" height="9.6"/><rect class="cls-15" x="20.2883" y="1.5" width="0.0662" height="9.6"/><rect class="cls-16" x="20.3545" y="1.5" width="0.0662" height="9.6"/><rect class="cls-17" x="20.4207" y="1.5" width="0.0662" height="9.6"/><rect class="cls-18" x="20.4869" y="1.5" width="0.0662" height="9.6"/><rect class="cls-19" x="20.5531" y="1.5" width="0.0662" height="9.6"/><rect class="cls-20" x="20.6193" y="1.5" width="0.0662" height="9.6"/><rect class="cls-21" x="20.6855" y="1.5" width="0.0662" height="9.6"/><rect class="cls-22" x="20.7517" y="1.5" width="0.0662" height="9.6"/><rect class="cls-23" x="20.8179" y="1.5" width="0.0662" height="9.6"/><rect class="cls-24" x="20.8842" y="1.5" width="0.0662" height="9.6"/><rect class="cls-25" x="20.9504" y="1.5" width="0.0662" height="9.6"/><rect class="cls-26" x="21.0166" y="1.5" width="0.0662" height="9.6"/><rect class="cls-27" x="21.0828" y="1.5" width="0.0662" height="9.6"/><rect class="cls-28" x="21.149" y="1.5" width="0.0662" height="9.6"/><rect class="cls-29" x="21.2152" y="1.5" width="0.0662" height="9.6"/><rect class="cls-30" x="21.2814" y="1.5" width="0.0662" height="9.6"/><rect class="cls-31" x="21.3476" y="1.5" width="0.0662" height="9.6"/><rect class="cls-32" x="21.4138" y="1.5" width="0.0662" height="9.6"/><rect class="cls-33" x="21.48" y="1.5" width="0.0662" height="9.6"/><rect class="cls-34" x="21.5462" y="1.5" width="0.0662" height="9.6"/><rect class="cls-35" x="21.6124" y="1.5" width="0.0662" height="9.6"/><rect class="cls-36" x="21.6786" y="1.5" width="0.0662" height="9.6"/><rect class="cls-37" x="21.7448" y="1.5" width="0.0662" height="9.6"/><rect class="cls-38" x="21.811" y="1.5" width="0.0662" height="9.6"/><rect class="cls-39" x="21.8772" y="1.5" width="0.0662" height="9.6"/><rect class="cls-40" x="21.9435" y="1.5" width="0.0662" height="9.6"/><rect class="cls-41" x="22.0097" y="1.5" width="0.0662" height="9.6"/><rect class="cls-42" x="22.0759" y="1.5" width="0.0662" height="9.6"/><rect class="cls-43" x="22.1421" y="1.5" width="0.0662" height="9.6"/><rect class="cls-44" x="22.2083" y="1.5" width="0.0662" height="9.6"/><rect class="cls-45" x="22.2745" y="1.5" width="0.0662" height="9.6"/><rect class="cls-46" x="22.3407" y="1.5" width="0.0662" height="9.6"/><rect class="cls-46" x="22.4069" y="1.5" width="0.2931" height="9.6"/></g><g class="cls-49"><rect class="cls-3" x="9.3" y="7.9" width="1.1652" height="7.9"/><rect class="cls-3" x="10.4652" y="7.9" width="0.1701" height="7.9"/><rect class="cls-4" x="10.6353" y="7.9" width="0.1701" height="7.9"/><rect class="cls-5" x="10.8054" y="7.9" width="0.1701" height="7.9"/><rect class="cls-6" x="10.9755" y="7.9" width="0.1701" height="7.9"/><rect class="cls-7" x="11.1456" y="7.9" width="0.1701" height="7.9"/><rect class="cls-8" x="11.3157" y="7.9" width="0.1701" height="7.9"/><rect class="cls-9" x="11.4858" y="7.9" width="0.1701" height="7.9"/><rect class="cls-10" x="11.6559" y="7.9" width="0.1701" height="7.9"/><rect class="cls-11" x="11.826" y="7.9" width="0.1701" height="7.9"/><rect class="cls-12" x="11.9961" y="7.9" width="0.1701" height="7.9"/><rect class="cls-13" x="12.1662" y="7.9" width="0.1701" height="7.9"/><rect class="cls-14" x="12.3363" y="7.9" width="0.1701" height="7.9"/><rect class="cls-14" x="12.5063" y="7.9" width="0.1099" height="7.9"/><rect class="cls-15" x="12.6162" y="7.9" width="0.1099" height="7.9"/><rect class="cls-16" x="12.7261" y="7.9" width="0.1099" height="7.9"/><rect class="cls-17" x="12.836" y="7.9" width="0.1099" height="7.9"/><rect class="cls-18" x="12.9458" y="7.9" width="0.1099" height="7.9"/><rect class="cls-19" x="13.0557" y="7.9" width="0.1099" height="7.9"/><rect class="cls-20" x="13.1656" y="7.9" width="0.1099" height="7.9"/><rect class="cls-21" x="13.2754" y="7.9" width="0.1099" height="7.9"/><rect class="cls-22" x="13.3853" y="7.9" width="0.1099" height="7.9"/><rect class="cls-23" x="13.4952" y="7.9" width="0.1099" height="7.9"/><rect class="cls-24" x="13.6051" y="7.9" width="0.1099" height="7.9"/><rect class="cls-25" x="13.7149" y="7.9" width="0.1099" height="7.9"/><rect class="cls-26" x="13.8248" y="7.9" width="0.1099" height="7.9"/><rect class="cls-27" x="13.9347" y="7.9" width="0.1099" height="7.9"/><rect class="cls-28" x="14.0445" y="7.9" width="0.1099" height="7.9"/><rect class="cls-29" x="14.1544" y="7.9" width="0.1099" height="7.9"/><rect class="cls-30" x="14.2643" y="7.9" width="0.1099" height="7.9"/><rect class="cls-31" x="14.3742" y="7.9" width="0.1099" height="7.9"/><rect class="cls-32" x="14.484" y="7.9" width="0.1099" height="7.9"/><rect class="cls-33" x="14.5939" y="7.9" width="0.1099" height="7.9"/><rect class="cls-34" x="14.7038" y="7.9" width="0.1099" height="7.9"/><rect class="cls-35" x="14.8136" y="7.9" width="0.1099" height="7.9"/><rect class="cls-36" x="14.9235" y="7.9" width="0.1099" height="7.9"/><rect class="cls-37" x="15.0334" y="7.9" width="0.1099" height="7.9"/><rect class="cls-38" x="15.1433" y="7.9" width="0.1099" height="7.9"/><rect class="cls-39" x="15.2531" y="7.9" width="0.1099" height="7.9"/><rect class="cls-40" x="15.363" y="7.9" width="0.1099" height="7.9"/><rect class="cls-41" x="15.4729" y="7.9" width="0.1099" height="7.9"/><rect class="cls-42" x="15.5827" y="7.9" width="0.1099" height="7.9"/><rect class="cls-43" x="15.6926" y="7.9" width="0.1099" height="7.9"/><rect class="cls-44" x="15.8025" y="7.9" width="0.1099" height="7.9"/><rect class="cls-45" x="15.9124" y="7.9" width="0.1099" height="7.9"/><rect class="cls-46" x="16.0222" y="7.9" width="0.1099" height="7.9"/><rect class="cls-46" x="16.1321" y="7.9" width="0.2679" height="7.9"/></g><g class="cls-50"><rect class="cls-3" x="2.8" y="20" width="1.5563" height="3.4"/><rect class="cls-3" x="4.3563" y="20" width="0.2462" height="3.4"/><rect class="cls-4" x="4.6025" y="20" width="0.2462" height="3.4"/><rect class="cls-5" x="4.8487" y="20" width="0.2462" height="3.4"/><rect class="cls-6" x="5.0949" y="20" width="0.2462" height="3.4"/><rect class="cls-7" x="5.3412" y="20" width="0.2462" height="3.4"/><rect class="cls-8" x="5.5874" y="20" width="0.2462" height="3.4"/><rect class="cls-9" x="5.8336" y="20" width="0.2462" height="3.4"/><rect class="cls-10" x="6.0798" y="20" width="0.2462" height="3.4"/><rect class="cls-11" x="6.326" y="20" width="0.2462" height="3.4"/><rect class="cls-12" x="6.5723" y="20" width="0.2462" height="3.4"/><rect class="cls-13" x="6.8185" y="20" width="0.2462" height="3.4"/><rect class="cls-14" x="7.0647" y="20" width="0.2462" height="3.4"/><rect class="cls-14" x="7.3109" y="20" width="0.159" height="3.4"/><rect class="cls-15" x="7.47" y="20" width="0.159" height="3.4"/><rect class="cls-16" x="7.629" y="20" width="0.159" height="3.4"/><rect class="cls-17" x="7.788" y="20" width="0.159" height="3.4"/><rect class="cls-18" x="7.9471" y="20" width="0.159" height="3.4"/><rect class="cls-19" x="8.1061" y="20" width="0.159" height="3.4"/><rect class="cls-20" x="8.2652" y="20" width="0.159" height="3.4"/><rect class="cls-21" x="8.4242" y="20" width="0.159" height="3.4"/><rect class="cls-22" x="8.5833" y="20" width="0.159" height="3.4"/><rect class="cls-23" x="8.7423" y="20" width="0.159" height="3.4"/><rect class="cls-24" x="8.9013" y="20" width="0.159" height="3.4"/><rect class="cls-25" x="9.0604" y="20" width="0.159" height="3.4"/><rect class="cls-26" x="9.2194" y="20" width="0.159" height="3.4"/><rect class="cls-27" x="9.3785" y="20" width="0.159" height="3.4"/><rect class="cls-28" x="9.5375" y="20" width="0.159" height="3.4"/><rect class="cls-29" x="9.6965" y="20" width="0.159" height="3.4"/><rect class="cls-30" x="9.8556" y="20" width="0.159" height="3.4"/><rect class="cls-31" x="10.0146" y="20" width="0.159" height="3.4"/><rect class="cls-32" x="10.1737" y="20" width="0.159" height="3.4"/><rect class="cls-33" x="10.3327" y="20" width="0.159" height="3.4"/><rect class="cls-34" x="10.4918" y="20" width="0.159" height="3.4"/><rect class="cls-35" x="10.6508" y="20" width="0.159" height="3.4"/><rect class="cls-36" x="10.8098" y="20" width="0.159" height="3.4"/><rect class="cls-37" x="10.9689" y="20" width="0.159" height="3.4"/><rect class="cls-38" x="11.1279" y="20" width="0.159" height="3.4"/><rect class="cls-39" x="11.287" y="20" width="0.159" height="3.4"/><rect class="cls-40" x="11.446" y="20" width="0.159" height="3.4"/><rect class="cls-41" x="11.605" y="20" width="0.159" height="3.4"/><rect class="cls-42" x="11.7641" y="20" width="0.159" height="3.4"/><rect class="cls-43" x="11.9231" y="20" width="0.159" height="3.4"/><rect class="cls-44" x="12.0822" y="20" width="0.159" height="3.4"/><rect class="cls-45" x="12.2412" y="20" width="0.159" height="3.4"/><rect class="cls-46" x="12.4003" y="20" width="0.159" height="3.4"/><rect class="cls-46" x="12.5593" y="20" width="0.1407" height="3.4"/></g><g class="cls-51"><rect class="cls-3" x="3.7" y="28.9" width="1.4552" height="3.4"/><rect class="cls-3" x="5.1552" y="28.9" width="0.2463" height="3.4"/><rect class="cls-4" x="5.4015" y="28.9" width="0.2463" height="3.4"/><rect class="cls-5" x="5.6478" y="28.9" width="0.2463" height="3.4"/><rect class="cls-6" x="5.8941" y="28.9" width="0.2463" height="3.4"/><rect class="cls-7" x="6.1403" y="28.9" width="0.2463" height="3.4"/><rect class="cls-8" x="6.3866" y="28.9" width="0.2463" height="3.4"/><rect class="cls-9" x="6.6329" y="28.9" width="0.2463" height="3.4"/><rect class="cls-10" x="6.8792" y="28.9" width="0.2463" height="3.4"/><rect class="cls-11" x="7.1255" y="28.9" width="0.2463" height="3.4"/><rect class="cls-12" x="7.3718" y="28.9" width="0.2463" height="3.4"/><rect class="cls-13" x="7.6181" y="28.9" width="0.2463" height="3.4"/><rect class="cls-14" x="7.8644" y="28.9" width="0.2463" height="3.4"/><rect class="cls-14" x="8.1106" y="28.9" width="0.1591" height="3.4"/><rect class="cls-15" x="8.2697" y="28.9" width="0.1591" height="3.4"/><rect class="cls-16" x="8.4288" y="28.9" width="0.1591" height="3.4"/><rect class="cls-17" x="8.5879" y="28.9" width="0.1591" height="3.4"/><rect class="cls-18" x="8.747" y="28.9" width="0.1591" height="3.4"/><rect class="cls-19" x="8.9061" y="28.9" width="0.1591" height="3.4"/><rect class="cls-20" x="9.0652" y="28.9" width="0.1591" height="3.4"/><rect class="cls-21" x="9.2242" y="28.9" width="0.1591" height="3.4"/><rect class="cls-22" x="9.3833" y="28.9" width="0.1591" height="3.4"/><rect class="cls-23" x="9.5424" y="28.9" width="0.1591" height="3.4"/><rect class="cls-24" x="9.7015" y="28.9" width="0.1591" height="3.4"/><rect class="cls-25" x="9.8606" y="28.9" width="0.1591" height="3.4"/><rect class="cls-26" x="10.0197" y="28.9" width="0.1591" height="3.4"/><rect class="cls-27" x="10.1788" y="28.9" width="0.1591" height="3.4"/><rect class="cls-28" x="10.3379" y="28.9" width="0.1591" height="3.4"/><rect class="cls-29" x="10.4969" y="28.9" width="0.1591" height="3.4"/><rect class="cls-30" x="10.656" y="28.9" width="0.1591" height="3.4"/><rect class="cls-31" x="10.8151" y="28.9" width="0.1591" height="3.4"/><rect class="cls-32" x="10.9742" y="28.9" width="0.1591" height="3.4"/><rect class="cls-33" x="11.1333" y="28.9" width="0.1591" height="3.4"/><rect class="cls-34" x="11.2924" y="28.9" width="0.1591" height="3.4"/><rect class="cls-35" x="11.4515" y="28.9" width="0.1591" height="3.4"/><rect class="cls-36" x="11.6105" y="28.9" width="0.1591" height="3.4"/><rect class="cls-37" x="11.7696" y="28.9" width="0.1591" height="3.4"/><rect class="cls-38" x="11.9287" y="28.9" width="0.1591" height="3.4"/><rect class="cls-39" x="12.0878" y="28.9" width="0.1591" height="3.4"/><rect class="cls-40" x="12.2469" y="28.9" width="0.1591" height="3.4"/><rect class="cls-41" x="12.406" y="28.9" width="0.1591" height="3.4"/><rect class="cls-42" x="12.5651" y="28.9" width="0.1591" height="3.4"/><rect class="cls-43" x="12.7242" y="28.9" width="0.1591" height="3.4"/><rect class="cls-44" x="12.8832" y="28.9" width="0.1591" height="3.4"/><rect class="cls-45" x="13.0423" y="28.9" width="0.1591" height="3.4"/><rect class="cls-46" x="13.2014" y="28.9" width="0.1591" height="3.4"/><rect class="cls-46" x="13.3605" y="28.9" width="0.1395" height="3.4"/></g><g class="cls-52"><rect class="cls-3" x="7.9" y="34.2" width="1.3099" height="7.4"/><rect class="cls-3" x="9.2099" y="34.2" width="0.1881" height="7.4"/><rect class="cls-4" x="9.3979" y="34.2" width="0.1881" height="7.4"/><rect class="cls-5" x="9.586" y="34.2" width="0.1881" height="7.4"/><rect class="cls-6" x="9.774" y="34.2" width="0.1881" height="7.4"/><rect class="cls-7" x="9.9621" y="34.2" width="0.1881" height="7.4"/><rect class="cls-8" x="10.1502" y="34.2" width="0.1881" height="7.4"/><rect class="cls-9" x="10.3382" y="34.2" width="0.1881" height="7.4"/><rect class="cls-10" x="10.5263" y="34.2" width="0.1881" height="7.4"/><rect class="cls-11" x="10.7143" y="34.2" width="0.1881" height="7.4"/><rect class="cls-12" x="10.9024" y="34.2" width="0.1881" height="7.4"/><rect class="cls-13" x="11.0904" y="34.2" width="0.1881" height="7.4"/><rect class="cls-14" x="11.2785" y="34.2" width="0.1881" height="7.4"/><rect class="cls-14" x="11.4666" y="34.2" width="0.1215" height="7.4"/><rect class="cls-15" x="11.588" y="34.2" width="0.1215" height="7.4"/><rect class="cls-16" x="11.7095" y="34.2" width="0.1215" height="7.4"/><rect class="cls-17" x="11.831" y="34.2" width="0.1215" height="7.4"/><rect class="cls-18" x="11.9525" y="34.2" width="0.1215" height="7.4"/><rect class="cls-19" x="12.0739" y="34.2" width="0.1215" height="7.4"/><rect class="cls-20" x="12.1954" y="34.2" width="0.1215" height="7.4"/><rect class="cls-21" x="12.3169" y="34.2" width="0.1215" height="7.4"/><rect class="cls-22" x="12.4384" y="34.2" width="0.1215" height="7.4"/><rect class="cls-23" x="12.5598" y="34.2" width="0.1215" height="7.4"/><rect class="cls-24" x="12.6813" y="34.2" width="0.1215" height="7.4"/><rect class="cls-25" x="12.8028" y="34.2" width="0.1215" height="7.4"/><rect class="cls-26" x="12.9242" y="34.2" width="0.1215" height="7.4"/><rect class="cls-27" x="13.0457" y="34.2" width="0.1215" height="7.4"/><rect class="cls-28" x="13.1672" y="34.2" width="0.1215" height="7.4"/><rect class="cls-29" x="13.2887" y="34.2" width="0.1215" height="7.4"/><rect class="cls-30" x="13.4101" y="34.2" width="0.1215" height="7.4"/><rect class="cls-31" x="13.5316" y="34.2" width="0.1215" height="7.4"/><rect class="cls-32" x="13.6531" y="34.2" width="0.1215" height="7.4"/><rect class="cls-33" x="13.7746" y="34.2" width="0.1215" height="7.4"/><rect class="cls-34" x="13.896" y="34.2" width="0.1215" height="7.4"/><rect class="cls-35" x="14.0175" y="34.2" width="0.1215" height="7.4"/><rect class="cls-36" x="14.139" y="34.2" width="0.1215" height="7.4"/><rect class="cls-37" x="14.2605" y="34.2" width="0.1215" height="7.4"/><rect class="cls-38" x="14.3819" y="34.2" width="0.1215" height="7.4"/><rect class="cls-39" x="14.5034" y="34.2" width="0.1215" height="7.4"/><rect class="cls-40" x="14.6249" y="34.2" width="0.1215" height="7.4"/><rect class="cls-41" x="14.7464" y="34.2" width="0.1215" height="7.4"/><rect class="cls-42" x="14.8678" y="34.2" width="0.1215" height="7.4"/><rect class="cls-43" x="14.9893" y="34.2" width="0.1215" height="7.4"/><rect class="cls-44" x="15.1108" y="34.2" width="0.1215" height="7.4"/><rect class="cls-45" x="15.2323" y="34.2" width="0.1215" height="7.4"/><rect class="cls-46" x="15.3537" y="34.2" width="0.1215" height="7.4"/><rect class="cls-46" x="15.4752" y="34.2" width="0.2248" height="7.4"/></g><g class="cls-53"><rect class="cls-3" x="36.3" y="7.7" width="1.3002" height="7.6"/><rect class="cls-3" x="37.6002" y="7.7" width="0.1821" height="7.6"/><rect class="cls-4" x="37.7823" y="7.7" width="0.1821" height="7.6"/><rect class="cls-5" x="37.9644" y="7.7" width="0.1821" height="7.6"/><rect class="cls-6" x="38.1466" y="7.7" width="0.1821" height="7.6"/><rect class="cls-7" x="38.3287" y="7.7" width="0.1821" height="7.6"/><rect class="cls-8" x="38.5108" y="7.7" width="0.1821" height="7.6"/><rect class="cls-9" x="38.6929" y="7.7" width="0.1821" height="7.6"/><rect class="cls-10" x="38.875" y="7.7" width="0.1821" height="7.6"/><rect class="cls-11" x="39.0572" y="7.7" width="0.1821" height="7.6"/><rect class="cls-12" x="39.2393" y="7.7" width="0.1821" height="7.6"/><rect class="cls-13" x="39.4214" y="7.7" width="0.1821" height="7.6"/><rect class="cls-14" x="39.6035" y="7.7" width="0.1821" height="7.6"/><rect class="cls-14" x="39.7857" y="7.7" width="0.1176" height="7.6"/><rect class="cls-15" x="39.9033" y="7.7" width="0.1176" height="7.6"/><rect class="cls-16" x="40.0209" y="7.7" width="0.1176" height="7.6"/><rect class="cls-17" x="40.1386" y="7.7" width="0.1176" height="7.6"/><rect class="cls-18" x="40.2562" y="7.7" width="0.1176" height="7.6"/><rect class="cls-19" x="40.3739" y="7.7" width="0.1176" height="7.6"/><rect class="cls-20" x="40.4915" y="7.7" width="0.1176" height="7.6"/><rect class="cls-21" x="40.6091" y="7.7" width="0.1176" height="7.6"/><rect class="cls-22" x="40.7268" y="7.7" width="0.1176" height="7.6"/><rect class="cls-23" x="40.8444" y="7.7" width="0.1176" height="7.6"/><rect class="cls-24" x="40.9621" y="7.7" width="0.1176" height="7.6"/><rect class="cls-25" x="41.0797" y="7.7" width="0.1176" height="7.6"/><rect class="cls-26" x="41.1974" y="7.7" width="0.1176" height="7.6"/><rect class="cls-27" x="41.315" y="7.7" width="0.1176" height="7.6"/><rect class="cls-28" x="41.4326" y="7.7" width="0.1176" height="7.6"/><rect class="cls-29" x="41.5503" y="7.7" width="0.1176" height="7.6"/><rect class="cls-30" x="41.6679" y="7.7" width="0.1176" height="7.6"/><rect class="cls-31" x="41.7856" y="7.7" width="0.1176" height="7.6"/><rect class="cls-32" x="41.9032" y="7.7" width="0.1176" height="7.6"/><rect class="cls-33" x="42.0208" y="7.7" width="0.1176" height="7.6"/><rect class="cls-34" x="42.1385" y="7.7" width="0.1176" height="7.6"/><rect class="cls-35" x="42.2561" y="7.7" width="0.1176" height="7.6"/><rect class="cls-36" x="42.3738" y="7.7" width="0.1176" height="7.6"/><rect class="cls-37" x="42.4914" y="7.7" width="0.1176" height="7.6"/><rect class="cls-38" x="42.609" y="7.7" width="0.1176" height="7.6"/><rect class="cls-39" x="42.7267" y="7.7" width="0.1176" height="7.6"/><rect class="cls-40" x="42.8443" y="7.7" width="0.1176" height="7.6"/><rect class="cls-41" x="42.962" y="7.7" width="0.1176" height="7.6"/><rect class="cls-42" x="43.0796" y="7.7" width="0.1176" height="7.6"/><rect class="cls-43" x="43.1972" y="7.7" width="0.1176" height="7.6"/><rect class="cls-44" x="43.3149" y="7.7" width="0.1176" height="7.6"/><rect class="cls-45" x="43.4325" y="7.7" width="0.1176" height="7.6"/><rect class="cls-46" x="43.5502" y="7.7" width="0.1176" height="7.6"/><rect class="cls-46" x="43.6678" y="7.7" width="0.2322" height="7.6"/></g><g class="cls-54"><rect class="cls-3" x="30" y="1.2" width="0.5867" height="9.8"/><rect class="cls-3" x="30.5867" y="1.2" width="0.073" height="9.8"/><rect class="cls-4" x="30.6596" y="1.2" width="0.073" height="9.8"/><rect class="cls-5" x="30.7326" y="1.2" width="0.073" height="9.8"/><rect class="cls-6" x="30.8055" y="1.2" width="0.073" height="9.8"/><rect class="cls-7" x="30.8785" y="1.2" width="0.073" height="9.8"/><rect class="cls-8" x="30.9514" y="1.2" width="0.073" height="9.8"/><rect class="cls-9" x="31.0244" y="1.2" width="0.073" height="9.8"/><rect class="cls-10" x="31.0973" y="1.2" width="0.073" height="9.8"/><rect class="cls-11" x="31.1703" y="1.2" width="0.073" height="9.8"/><rect class="cls-12" x="31.2432" y="1.2" width="0.073" height="9.8"/><rect class="cls-13" x="31.3162" y="1.2" width="0.073" height="9.8"/><rect class="cls-14" x="31.3891" y="1.2" width="0.073" height="9.8"/><rect class="cls-14" x="31.4621" y="1.2" width="0.0471" height="9.8"/><rect class="cls-15" x="31.5092" y="1.2" width="0.0471" height="9.8"/><rect class="cls-16" x="31.5563" y="1.2" width="0.0471" height="9.8"/><rect class="cls-17" x="31.6034" y="1.2" width="0.0471" height="9.8"/><rect class="cls-18" x="31.6506" y="1.2" width="0.0471" height="9.8"/><rect class="cls-19" x="31.6977" y="1.2" width="0.0471" height="9.8"/><rect class="cls-20" x="31.7448" y="1.2" width="0.0471" height="9.8"/><rect class="cls-21" x="31.7919" y="1.2" width="0.0471" height="9.8"/><rect class="cls-22" x="31.8391" y="1.2" width="0.0471" height="9.8"/><rect class="cls-23" x="31.8862" y="1.2" width="0.0471" height="9.8"/><rect class="cls-24" x="31.9333" y="1.2" width="0.0471" height="9.8"/><rect class="cls-25" x="31.9804" y="1.2" width="0.0471" height="9.8"/><rect class="cls-26" x="32.0275" y="1.2" width="0.0471" height="9.8"/><rect class="cls-27" x="32.0747" y="1.2" width="0.0471" height="9.8"/><rect class="cls-28" x="32.1218" y="1.2" width="0.0471" height="9.8"/><rect class="cls-29" x="32.1689" y="1.2" width="0.0471" height="9.8"/><rect class="cls-30" x="32.216" y="1.2" width="0.0471" height="9.8"/><rect class="cls-31" x="32.2632" y="1.2" width="0.0471" height="9.8"/><rect class="cls-32" x="32.3103" y="1.2" width="0.0471" height="9.8"/><rect class="cls-33" x="32.3574" y="1.2" width="0.0471" height="9.8"/><rect class="cls-34" x="32.4045" y="1.2" width="0.0471" height="9.8"/><rect class="cls-35" x="32.4516" y="1.2" width="0.0471" height="9.8"/><rect class="cls-36" x="32.4988" y="1.2" width="0.0471" height="9.8"/><rect class="cls-37" x="32.5459" y="1.2" width="0.0471" height="9.8"/><rect class="cls-38" x="32.593" y="1.2" width="0.0471" height="9.8"/><rect class="cls-39" x="32.6401" y="1.2" width="0.0471" height="9.8"/><rect class="cls-40" x="32.6872" y="1.2" width="0.0471" height="9.8"/><rect class="cls-41" x="32.7344" y="1.2" width="0.0471" height="9.8"/><rect class="cls-42" x="32.7815" y="1.2" width="0.0471" height="9.8"/><rect class="cls-43" x="32.8286" y="1.2" width="0.0471" height="9.8"/><rect class="cls-44" x="32.8757" y="1.2" width="0.0471" height="9.8"/><rect class="cls-45" x="32.9229" y="1.2" width="0.0471" height="9.8"/><rect class="cls-46" x="32.97" y="1.2" width="0.0471" height="9.8"/><rect class="cls-46" x="33.0171" y="1.2" width="0.1829" height="9.8"/></g><path d="M29.8,22c-.1,1.4-.2,2.9-.2,4.3l.2-4.3Z"/><path class="cls-55" d="M49.8,47.2c-.5-1.4-1-2.7-1.6-4.1-.5-1.4-1.1-2.7-1.6-4.1a18.4838,18.4838,0,0,1-2.3-.1H39.6a20.0838,20.0838,0,0,0-2.4.1c-.5,1.4-1,2.7-1.4,4.1-.5,1.4-.9,2.7-1.4,4.1H30.7c1.8-4.1,3.6-8.3,5.3-12.4s3.4-8.3,5-12.5h3.7c1.1,2.9,2.2,5.8,3.4,8.6,1.1,2.8,2.3,5.7,3.5,8.5.4.8.7,1.6,1.1,2.5a8.8419,8.8419,0,0,0,1.4,2.3,4.5039,4.5039,0,0,0,.9,1,3.9217,3.9217,0,0,0,1.3.5v1.4l-6.5.1ZM41.9,26.7c-.7,1.6-1.3,3.3-1.9,4.9s-1.2,3.3-1.8,4.9a12.7506,12.7506,0,0,0,1.9.1h3.8a10.8687,10.8687,0,0,0,1.8-.1Z"/><path class="cls-55" d="M69.4,29.4l-3.9,7.2V47.1H60.8c0-1.5.1-2.9.2-4.4s.2-2.9.2-4.4V36.7c-.4-.8-.9-1.7-1.4-2.7-.5-.9-1-1.9-1.6-2.8s-1.1-1.8-1.7-2.7-1.2-1.7-1.7-2.5a5.5469,5.5469,0,0,0-.6-.8,2.6513,2.6513,0,0,0-.6-.5,1.4932,1.4932,0,0,0-.7-.3,2.9585,2.9585,0,0,0-1-.2L51.8,23c1.1-.2,2.1-.3,3.1-.4s2.1-.1,3.1-.1L64.5,34a61.0806,61.0806,0,0,0,2.7-5.8q1.2-3,2.4-5.7h3.8C72,24.7,70.7,27.1,69.4,29.4Z"/><path class="cls-56" d="M94.6,43.2a7.3956,7.3956,0,0,1-2,2.3,8.5554,8.5554,0,0,1-2.9,1.3,12.6728,12.6728,0,0,1-3.4.4,14.9954,14.9954,0,0,1-3.7-.4,11.403,11.403,0,0,1-3.4-1.5l.8-3.6a7.0805,7.0805,0,0,0,2.8,2.4,8.2876,8.2876,0,0,0,3.6.8,4.4538,4.4538,0,0,0,3.1-1A3.5606,3.5606,0,0,0,90.7,41a3.3275,3.3275,0,0,0-.9-2.5,5.9567,5.9567,0,0,0-2.1-1.4,21.5225,21.5225,0,0,0-2.7-1A16.8655,16.8655,0,0,1,82.3,35a5.7374,5.7374,0,0,1-2.1-2,5.389,5.389,0,0,1-.9-3.3,7,7,0,0,1,.8-3.3,6.5893,6.5893,0,0,1,2.1-2.3,10.1079,10.1079,0,0,1,3-1.3,12.6728,12.6728,0,0,1,3.4-.4,28.2522,28.2522,0,0,1,2.9.2,14.2619,14.2619,0,0,1,2.7.9l-.6,5.2H92.4a.6012.6012,0,0,1-.1-.4.6012.6012,0,0,0-.1-.4,4.5326,4.5326,0,0,0-1.3-2.5,4.148,4.148,0,0,0-2.7-.7,9.8524,9.8524,0,0,0-1.7.2,6.11,6.11,0,0,0-1.4.7,2.73,2.73,0,0,0-.9,1.2,4.1456,4.1456,0,0,0-.3,1.6,3.2436,3.2436,0,0,0,.9,2.4,7.7057,7.7057,0,0,0,2.1,1.4,21.5225,21.5225,0,0,0,2.7,1,11.0654,11.0654,0,0,1,2.7,1.2,6.689,6.689,0,0,1,2.1,2,6.0505,6.0505,0,0,1,.9,3.5A7.2455,7.2455,0,0,1,94.6,43.2Z"/><path class="cls-56" d="M99,30.2a10.4946,10.4946,0,0,1,2.7-4.1,14.5985,14.5985,0,0,1,4.1-2.7,15.27,15.27,0,0,1,5.4-1,13.4768,13.4768,0,0,1,5,.9,12.3009,12.3009,0,0,1,3.8,2.4,11.8175,11.8175,0,0,1,2.4,3.7,12.8032,12.8032,0,0,1,.9,4.8,14.5614,14.5614,0,0,1-.9,5.2,10.4946,10.4946,0,0,1-2.7,4.1,14.5985,14.5985,0,0,1-4.1,2.7,13.3341,13.3341,0,0,1-5.4,1,13.4768,13.4768,0,0,1-5-.9,12.3009,12.3009,0,0,1-3.8-2.4A11.8175,11.8175,0,0,1,99,40.2a12.8032,12.8032,0,0,1-.9-4.8A14.5614,14.5614,0,0,1,99,30.2Zm4.5,8.1a11.9615,11.9615,0,0,0,1.3,3.3,6.8943,6.8943,0,0,0,2.4,2.4,6.5079,6.5079,0,0,0,3.5.9,6.8706,6.8706,0,0,0,3.6-.9,6.6187,6.6187,0,0,0,2.3-2.4,11.9615,11.9615,0,0,0,1.3-3.3,15.5125,15.5125,0,0,0,0-7,11.9615,11.9615,0,0,0-1.3-3.3,6.8943,6.8943,0,0,0-2.4-2.4,6.5079,6.5079,0,0,0-3.5-.9,6.2733,6.2733,0,0,0-3.5.9,6.8943,6.8943,0,0,0-2.4,2.4,11.9615,11.9615,0,0,0-1.3,3.3,14.47,14.47,0,0,0-.4,3.5A13.9338,13.9338,0,0,0,103.5,38.3Z"/><path class="cls-56" d="M141.1,47.2H126.9c.2-3.1.3-6.1.4-9.2.1-3,.1-6.1.1-9.2a12.1228,12.1228,0,0,0-.1-2,2.5723,2.5723,0,0,0-.5-1.4,2.4447,2.4447,0,0,0-1.1-.9,5.8423,5.8423,0,0,0-2.1-.3V23c1.1-.2,2.1-.4,3.2-.5s2.2-.2,3.3-.2h1.5V41.7a6.6217,6.6217,0,0,0,.1,1.5,2.9946,2.9946,0,0,0,.4,1,1.9336,1.9336,0,0,0,.9.5,6.0525,6.0525,0,0,0,1.5.2h1.4a9.7224,9.7224,0,0,0,1.8-.1,2.1443,2.1443,0,0,0,1.2-.4,2.089,2.089,0,0,0,.8-1,5.64,5.64,0,0,0,.5-1.8h1.4Z"/><path d="M29.4,29.9c0,.6-.1,1.3-.1,2h0v-.6l.3-4.8Z"/><path class="cls-55" d="M29.9,21.4v.3c-.1,1.4-.2,2.9-.2,4.3v.3l-.2,3.4c0,.6-.1,1.3-.1,2.1-.1,1.6-.1,3.6-.2,5.9a30.9177,30.9177,0,0,1-.4,4.7,4.9235,4.9235,0,0,1-.6,1.7,4.7008,4.7008,0,0,1-.9,1.2,5.8258,5.8258,0,0,1-1.5,1.1,9.8893,9.8893,0,0,1-2.4.9,15.4581,15.4581,0,0,1-3.1.4,34.625,34.625,0,0,1-6.6-.8c-.1-1.4-.2-2.9-.3-4.4,2.7.9,6.7,2.2,9.2.2,2.4-1.9,1.9-6.4,2-9.2.1-1.9,0-3.2.1-5.5,0-1,0-2,.1-3a1.6239,1.6239,0,0,0-1-1.6,8.6833,8.6833,0,0,0-2.1-.4l.1-1.4c1.1-.2,2.2-.1,3.3-.2h4.8Z"/><path class="cls-56" d="M162.3,47.2c-.5-1.4-1-2.7-1.6-4.1-.5-1.4-1.1-2.7-1.6-4.1a18.4838,18.4838,0,0,1-2.3-.1h-4.7a20.9321,20.9321,0,0,0-2.4.1c-.5,1.4-1,2.7-1.4,4.1-.5,1.4-.9,2.7-1.4,4.1h-3.7c1.8-4.1,3.6-8.3,5.3-12.4s3.4-8.3,5-12.5h3.7c1.1,2.9,2.2,5.8,3.4,8.6,1.1,2.8,2.3,5.7,3.5,8.5.4.8.7,1.6,1.1,2.5a8.8419,8.8419,0,0,0,1.4,2.3,4.5039,4.5039,0,0,0,.9,1,3.9217,3.9217,0,0,0,1.3.5v1.4l-6.5.1Zm-7.9-20.5c-.7,1.6-1.3,3.3-1.9,4.9s-1.2,3.3-1.8,4.9a12.7506,12.7506,0,0,0,1.9.1h3.8a10.8687,10.8687,0,0,0,1.8-.1Z"/><path class="cls-56" d="M183.3,47.2c-1-1.9-2.1-3.7-3.1-5.6-1-1.8-2.1-3.7-3.3-5.5H176V47.2h-4.7c.1-3.2.3-6.4.4-9.6s.2-6.3.2-9.6a9.702,9.702,0,0,0-.1-1.7,3.36,3.36,0,0,0-.5-1.4,3.1782,3.1782,0,0,0-1-1,3.8672,3.8672,0,0,0-1.7-.4V22.2c1.7,0,3.5,0,5.1-.1h5.1a14.7687,14.7687,0,0,1,2.1.1,6.529,6.529,0,0,1,2,.5,5.1727,5.1727,0,0,1,2.8,2.2,5.9856,5.9856,0,0,1,1,3.5,6.0464,6.0464,0,0,1-1.6,4.3,7.1981,7.1981,0,0,1-4,2.2c.4.7.7,1.3,1.1,1.9a18.5758,18.5758,0,0,1,1.1,1.9q.3.45.9,1.5l1.2,2.1c.5.7.9,1.3,1.3,1.9a3.7343,3.7343,0,0,0,1.1,1.1,4.2114,4.2114,0,0,0,2,.4V47l-6.5.2Zm-2.4-21.5a5.1068,5.1068,0,0,0-3.4-1H176V34h1.1a5.1478,5.1478,0,0,0,3.7-1.2,4.8719,4.8719,0,0,0,1.3-3.8A4.1631,4.1631,0,0,0,180.9,25.7Z"/><g class="cls-57"><path class="cls-58" d="M85.2168,56.6055H82.8521q.0629-.7911.0727-1.583t.01-1.5821a2.2335,2.2335,0,0,0-.0161-.2754.595.595,0,0,0-.0728-.2285.4369.4369,0,0,0-.1587-.1582.6163.6163,0,0,0-.2724-.0722v-.2217h2.5805v.4375q-.3046-.0323-.6025-.0449c-.1988-.0079-.3994-.0127-.6021-.0127H83.708a.5029.5029,0,0,0-.0762.0068v1.3633l1.2618-.02-.0572.4424-1.2046-.0322v.5244c0,.043.001.0967.003.16s.0044.1289.0063.1953.0064.13.0127.1924l.0161.1562a.7458.7458,0,0,0,.0537.2022.28.28,0,0,0,.0889.1113.286.286,0,0,0,.1362.0488,1.9562,1.9562,0,0,0,.2032.0088h.2788a1.7577,1.7577,0,0,0,.2949-.0185.3169.3169,0,0,0,.165-.0762.4123.4123,0,0,0,.0982-.1621q.0381-.1041.0952-.2754h.2217Z"/><path class="cls-58" d="M88.0889,56.624q.0315-.4175.0381-.8369.0065-.4175.0063-.8369,0-.1832-.0161-.3516a.8093.8093,0,0,0-.0825-.2978.5218.5218,0,0,0-.1978-.209.6934.6934,0,0,0-.36-.08,1.0264,1.0264,0,0,0-.3951.08.748.748,0,0,0-.3183.25V56.624h-.729q.0374-.57.0659-1.1347t.0283-1.1348a.5734.5734,0,0,0-.11-.4072.6163.6163,0,0,0-.4087-.1211v-.1807a3.7755,3.7755,0,0,1,.559-.0781q.2806-.0175.563-.0176l.0127.4063a.8119.8119,0,0,1,.2022-.19,1.1555,1.1555,0,0,1,.2534-.125,1.5546,1.5546,0,0,1,.2827-.07,1.9933,1.9933,0,0,1,.2954-.0215,1.131,1.131,0,0,1,.7988.24,1.0193,1.0193,0,0,1,.2535.7676q0,.2726-.0157.542t-.0161.542q0,.1715.0034.3047a.5952.5952,0,0,0,.0474.2314.3486.3486,0,0,0,.1489.1582.8467.8467,0,0,0,.3013.086v.2021Z"/><path class="cls-58" d="M92.3218,54.8174c-.0025.0508-.0054.1035-.01.1582l-2.0415.02a2.1218,2.1218,0,0,0,.0664.4942,1.1626,1.1626,0,0,0,.187.3994.8463.8463,0,0,0,.333.2666,1.18,1.18,0,0,0,.4976.0947,1.503,1.503,0,0,0,.4629-.0723,2.3118,2.3118,0,0,0,.4311-.1875l-.0507.3936A1.683,1.683,0,0,1,91.69,56.6a2.3843,2.3843,0,0,1-.5512.0625,1.9913,1.9913,0,0,1-.6626-.1045,1.364,1.364,0,0,1-.5137-.31,1.41,1.41,0,0,1-.33-.4981,1.7449,1.7449,0,0,1-.1172-.6592,1.7789,1.7789,0,0,1,.1138-.6406,1.5717,1.5717,0,0,1,.32-.5166,1.4577,1.4577,0,0,1,.4946-.3418,1.5919,1.5919,0,0,1,.6372-.124,1.3286,1.3286,0,0,1,.916.292,1.1462,1.1462,0,0,1,.3267.9Q92.3247,54.7413,92.3218,54.8174Zm-.7769-.4981a.7894.7894,0,0,0-.0888-.2529.5064.5064,0,0,0-.1744-.1807.5334.5334,0,0,0-.2885-.07.6243.6243,0,0,0-.32.0762.6412.6412,0,0,0-.2125.2.9173.9173,0,0,0-.1235.2822,1.8353,1.8353,0,0,0-.0537.3233l1.2871-.0889A1.6831,1.6831,0,0,0,91.5449,54.3193Z"/><path class="cls-58" d="M94.9624,54.2529h-.165a.5.5,0,0,0-.1426-.1836.3693.3693,0,0,0-.2188-.0576.6055.6055,0,0,0-.5517.2988v2.2764h-.7354q.044-.5582.0635-1.1162t.019-1.1221a.7019.7019,0,0,0-.1015-.4277.4957.4957,0,0,0-.4185-.1172v-.2021a2.3579,2.3579,0,0,1,.5137-.083c.1728-.0079.3486-.0127.5259-.0127h.1079v.45a.6076.6076,0,0,1,.165-.2012.8327.8327,0,0,1,.2281-.124,1.2417,1.2417,0,0,1,.2729-.0635,2.4884,2.4884,0,0,1,.2979-.0176h.1962Z"/><path class="cls-58" d="M98.0469,57.541a1.1494,1.1494,0,0,1-.3545.3516,1.6011,1.6011,0,0,1-.4854.2031,2.2859,2.2859,0,0,1-.5263.0635,2.8874,2.8874,0,0,1-.4942-.0449,1.326,1.326,0,0,1-.4634-.1709,1.0541,1.0541,0,0,1-.33-.2979.694.694,0,0,1-.1392-.4189.5688.5688,0,0,1,.0664-.2754.684.684,0,0,1,.1777-.2129.8841.8841,0,0,1,.2471-.1387,1.2771,1.2771,0,0,1,.27-.07.5148.5148,0,0,1-.2631-.1777.48.48,0,0,1-.0982-.3037.6424.6424,0,0,1,.0952-.3487.6189.6189,0,0,1,.273-.2353.9133.9133,0,0,1-.6792-.9444,1.0394,1.0394,0,0,1,.105-.4824.97.97,0,0,1,.2822-.3359,1.2363,1.2363,0,0,1,.4062-.1992,1.6845,1.6845,0,0,1,.4815-.0665,2.1446,2.1446,0,0,1,.4346.044,1.0276,1.0276,0,0,1,.3964.1777H98.12v.3994h-.4062a.5943.5943,0,0,1,.0664.1963,1.3467,1.3467,0,0,1,.0166.209,1.0514,1.0514,0,0,1-.1045.48,1.0175,1.0175,0,0,1-.2793.3418,1.1836,1.1836,0,0,1-.4024.2031,1.7314,1.7314,0,0,1-.4824.0664,1.6561,1.6561,0,0,1-.2471-.0185.3947.3947,0,0,0-.1044.1523.49.49,0,0,0-.0352.1836.2151.2151,0,0,0,.1523.2246,1.3718,1.3718,0,0,0,.377.0674c.15.0078.3145.0147.4912.0186a1.7065,1.7065,0,0,1,.4922.0791.8448.8448,0,0,1,.3769.2441.7633.7633,0,0,1,.1524.52A.9388.9388,0,0,1,98.0469,57.541Zm-.6338-.5869a.4729.4729,0,0,0-.1748-.168.6915.6915,0,0,0-.2442-.0791,1.9856,1.9856,0,0,0-.2753-.02,1.946,1.946,0,0,0-.27.02.7065.7065,0,0,0-.2412.0762.4455.4455,0,0,0-.2378.4248.5817.5817,0,0,0,.06.27.63.63,0,0,0,.1621.1993.6936.6936,0,0,0,.2344.124.9219.9219,0,0,0,.2724.041.9639.9639,0,0,0,.52-.1582.63.63,0,0,0,.1865-.19.4712.4712,0,0,0,.0733-.26A.5306.5306,0,0,0,97.4131,56.9541Zm-.3457-2.6406a.9941.9941,0,0,0-.0889-.27.6821.6821,0,0,0-.1611-.2128.3717.3717,0,0,0-.251-.085.4158.4158,0,0,0-.2344.0635.51.51,0,0,0-.1552.1611.7254.7254,0,0,0-.0889.2227,1.0222,1.0222,0,0,0-.0283.2373,1.4426,1.4426,0,0,0,.0254.2627.9424.9424,0,0,0,.0888.27.68.68,0,0,0,.1612.2129.3709.3709,0,0,0,.2509.0859.4158.4158,0,0,0,.2344-.0635.5225.5225,0,0,0,.1553-.1621.7609.7609,0,0,0,.0889-.2216,1.0965,1.0965,0,0,0,.0283-.2383A1.5355,1.5355,0,0,0,97.0674,54.3135Z"/><path class="cls-58" d="M100.83,55.0986q-.3267.7691-.6367,1.5625c-.0557.1377-.1133.2754-.1748.4151a1.7286,1.7286,0,0,1-.2247.3779,1.1123,1.1123,0,0,1-.3173.2754.89.89,0,0,1-.45.1064h-.2159l-.0126-.6621a.5656.5656,0,0,0,.1621.1446.3381.3381,0,0,0,.1679.0546.5212.5212,0,0,0,.2823-.0742.8338.8338,0,0,0,.206-.1875,1.2461,1.2461,0,0,0,.1524-.2519c.0419-.0928.0781-.1817.1074-.2686-.1094-.27-.22-.541-.3291-.8105s-.2266-.5391-.35-.8106q-.1011-.2256-.209-.4609a3.0317,3.0317,0,0,0-.2471-.4424.4867.4867,0,0,0-.168-.1816.66.66,0,0,0-.2441-.045l-.0254-.1933c.1358-.03.2715-.0537.4092-.0713a3.2507,3.2507,0,0,1,.415-.0254h.1963l.9131,2.0713q.1846-.5142.3428-1.03t.3164-1.041h.6025Q101.1578,54.3306,100.83,55.0986Z"/><path class="cls-58" d="M107.751,56.6055q-.0894-.8305-.1778-1.6455t-.1836-1.6455q-.3486.7734-.663,1.5507t-.6241,1.5694H105.64q-.33-.7808-.6435-1.5567t-.6563-1.5566q-.0819.8247-.1621,1.6387t-.123,1.6455h-.5967q.0836-.4878.1621-.97t.1494-.9707c.0371-.2656.0782-.5332.12-.8017a5.2266,5.2266,0,0,0,.0635-.8086.268.268,0,0,0-.1269-.2695.7088.7088,0,0,0-.3047-.0606V52.51c.123-.0176.2431-.0293.3613-.0381s.2393-.0127.3613-.0127c.1065,0,.21.0019.3116.0058s.2041.0108.3105.02q.2856.7294.59,1.4424t.6142,1.4355q.33-.709.6221-1.43t.57-1.4551h.8428q.0511.52.1084,1.04t.12,1.04q.0381.3047.0762.5986c.0253.1973.0576.3965.0957.6a2.1049,2.1049,0,0,0,.0849.333.4362.4362,0,0,0,.2315.2441.3789.3789,0,0,0,.124.0283,1.143,1.143,0,0,0,.13.01v.2344Z"/><path class="cls-58" d="M111.2129,56.5635v-.3926a.6852.6852,0,0,1-.1455.1963.84.84,0,0,1-.2031.1357.97.97,0,0,1-.2413.0782,1.3148,1.3148,0,0,1-.2539.0244,1.3477,1.3477,0,0,1-.39-.0547.9187.9187,0,0,1-.3135-.1612.7839.7839,0,0,1-.2129-.2646.8188.8188,0,0,1-.0791-.3711.6483.6483,0,0,1,.1836-.4951A1.1428,1.1428,0,0,1,110.0459,55a4.1419,4.1419,0,0,1,.5713-.1279q.2841-.0425.5762-.085v-.042a2.1622,2.1622,0,0,0-.0215-.3135.74.74,0,0,0-.0889-.2617.457.457,0,0,0-.1934-.1758.7306.7306,0,0,0-.33-.0644.9465.9465,0,0,0-.4375.1045.5813.5813,0,0,0-.2852.34h-.2031l-.0947-.49a1.2129,1.2129,0,0,1,.542-.2686,2.9438,2.9438,0,0,1,.6181-.0654,2.2765,2.2765,0,0,1,.5137.06.81.81,0,0,1,.4307.2539.617.617,0,0,1,.1113.1816,1.23,1.23,0,0,1,.0635.211,1.516,1.516,0,0,1,.0283.2177c.0039.0723.0068.1426.0068.211,0,.1738-.001.3447-.0039.5136s-.0029.34-.0029.5137a2.1727,2.1727,0,0,0,.0127.2471.4985.4985,0,0,0,.0635.2012.359.359,0,0,0,.1494.1377.6517.6517,0,0,0,.27.0566v.209Zm-.02-1.4864c-.0967.0245-.208.0489-.3321.0733a1.8934,1.8934,0,0,0-.3525.1035.8374.8374,0,0,0-.2793.1787.4058.4058,0,0,0-.1133.3008.4938.4938,0,0,0,.13.3516.4622.4622,0,0,0,.3584.14.58.58,0,0,0,.3262-.0781.5111.5111,0,0,0,.1777-.2041.7757.7757,0,0,0,.0723-.2822c.0088-.1055.0127-.2081.0127-.31Z"/><path class="cls-58" d="M114.9414,56.624q.0307-.4175.0381-.8369.0059-.4175.0059-.8369c0-.1221-.0049-.2393-.0157-.3516a.8076.8076,0,0,0-.083-.2978.52.52,0,0,0-.1972-.209.6947.6947,0,0,0-.36-.08,1.0216,1.0216,0,0,0-.3945.08.7482.7482,0,0,0-.3184.25V56.624h-.73q.0381-.57.0664-1.1347t.0283-1.1348a.5759.5759,0,0,0-.11-.4072.6177.6177,0,0,0-.4092-.1211v-.1807a3.7834,3.7834,0,0,1,.56-.0781q.28-.0175.5625-.0176l.0127.4063a.81.81,0,0,1,.2021-.19,1.1591,1.1591,0,0,1,.2539-.125,1.55,1.55,0,0,1,.2823-.07,2.0029,2.0029,0,0,1,.2959-.0215,1.1313,1.1313,0,0,1,.7988.24,1.02,1.02,0,0,1,.2529.7676q0,.2726-.0156.542c-.0108.18-.0156.36-.0156.542q0,.1715.0029.3047a.5951.5951,0,0,0,.0478.2314.3446.3446,0,0,0,.1485.1582.8524.8524,0,0,0,.3017.086v.2021Z"/><path class="cls-58" d="M118.2256,56.5635v-.3926a.6852.6852,0,0,1-.1455.1963.84.84,0,0,1-.2031.1357.97.97,0,0,1-.2413.0782,1.3148,1.3148,0,0,1-.2539.0244,1.3477,1.3477,0,0,1-.39-.0547.9187.9187,0,0,1-.3135-.1612.7839.7839,0,0,1-.2129-.2646.8188.8188,0,0,1-.0791-.3711.6483.6483,0,0,1,.1836-.4951A1.1428,1.1428,0,0,1,117.0586,55a4.1419,4.1419,0,0,1,.5713-.1279q.2841-.0425.5762-.085v-.042a2.1622,2.1622,0,0,0-.0215-.3135.7424.7424,0,0,0-.0889-.2617.457.457,0,0,0-.1934-.1758.7306.7306,0,0,0-.33-.0644.9465.9465,0,0,0-.4375.1045.5813.5813,0,0,0-.2852.34h-.2031l-.0947-.49a1.2129,1.2129,0,0,1,.542-.2686,2.9438,2.9438,0,0,1,.6181-.0654,2.2765,2.2765,0,0,1,.5137.06.8094.8094,0,0,1,.4306.2539.6152.6152,0,0,1,.1114.1816,1.23,1.23,0,0,1,.0635.211,1.516,1.516,0,0,1,.0283.2177c.0039.0723.0068.1426.0068.211,0,.1738-.001.3447-.0039.5136s-.0029.34-.0029.5137a2.1727,2.1727,0,0,0,.0127.2471.5.5,0,0,0,.0634.2012.36.36,0,0,0,.1495.1377.6517.6517,0,0,0,.27.0566v.209Zm-.0195-1.4864c-.0967.0245-.2081.0489-.3321.0733a1.8934,1.8934,0,0,0-.3525.1035.8374.8374,0,0,0-.2793.1787.4058.4058,0,0,0-.1133.3008.4938.4938,0,0,0,.13.3516.4622.4622,0,0,0,.3584.14.58.58,0,0,0,.3262-.0781.5111.5111,0,0,0,.1777-.2041.7777.7777,0,0,0,.0723-.2822c.0087-.1055.0127-.2081.0127-.31Z"/><path class="cls-58" d="M122.3311,57.541a1.1636,1.1636,0,0,1-.3555.3516,1.5906,1.5906,0,0,1-.4854.2031,2.2729,2.2729,0,0,1-.5263.0635,2.8964,2.8964,0,0,1-.4942-.0449,1.3345,1.3345,0,0,1-.4629-.1709,1.06,1.06,0,0,1-.33-.2979.6935.6935,0,0,1-.1387-.4189.5633.5633,0,0,1,.0664-.2754.6772.6772,0,0,1,.1777-.2129.8771.8771,0,0,1,.2471-.1387,1.2771,1.2771,0,0,1,.2695-.07.5141.5141,0,0,1-.2636-.1777.4793.4793,0,0,1-.0977-.3037.6421.6421,0,0,1,.0947-.3487.6258.6258,0,0,1,.2725-.2353.9139.9139,0,0,1-.6787-.9444,1.0345,1.0345,0,0,1,.1054-.4824.96.96,0,0,1,.2823-.3359,1.2351,1.2351,0,0,1,.4052-.1992,1.6914,1.6914,0,0,1,.4825-.0665,2.1348,2.1348,0,0,1,.4336.044,1.0276,1.0276,0,0,1,.3964.1777h.6719v.3994h-.4053a.6414.6414,0,0,1,.0665.1963,1.3469,1.3469,0,0,1,.0156.209,1.0514,1.0514,0,0,1-.1045.48,1.007,1.007,0,0,1-.2793.3418,1.1746,1.1746,0,0,1-.4024.2031,1.7248,1.7248,0,0,1-.4814.0664,1.6669,1.6669,0,0,1-.248-.0185.405.405,0,0,0-.1045.1523.4889.4889,0,0,0-.0342.1836.2143.2143,0,0,0,.1513.2246,1.38,1.38,0,0,0,.378.0674c.1494.0078.3135.0147.4912.0186a1.7,1.7,0,0,1,.4912.0791.84.84,0,0,1,.377.2441.7638.7638,0,0,1,.1523.52A.9385.9385,0,0,1,122.3311,57.541Zm-.6348-.5869a.47.47,0,0,0-.1738-.168.6989.6989,0,0,0-.2442-.0791,1.989,1.989,0,0,0-.2763-.02,1.946,1.946,0,0,0-.27.02.694.694,0,0,0-.24.0762.4766.4766,0,0,0-.1719.1582.4817.4817,0,0,0-.0664.2666.5819.5819,0,0,0,.0606.27.6135.6135,0,0,0,.1611.1993.7075.7075,0,0,0,.2353.124.9231.9231,0,0,0,.2725.041.9579.9579,0,0,0,.5195-.1582.6456.6456,0,0,0,.1875-.19.4712.4712,0,0,0,.0733-.26A.5213.5213,0,0,0,121.6963,56.9541Zm-.3457-2.6406a.9921.9921,0,0,0-.0879-.27.7.7,0,0,0-.1621-.2128.3691.3691,0,0,0-.25-.085.4169.4169,0,0,0-.2354.0635.51.51,0,0,0-.1552.1611.7513.7513,0,0,0-.0889.2227,1.0733,1.0733,0,0,0-.0283.2373,1.5373,1.5373,0,0,0,.0254.2627.9711.9711,0,0,0,.0888.27.6693.6693,0,0,0,.1621.2129.3687.3687,0,0,0,.25.0859.4158.4158,0,0,0,.2344-.0635.5213.5213,0,0,0,.1553-.1621.7342.7342,0,0,0,.0889-.2216,1.0381,1.0381,0,0,0,.0283-.2383A1.441,1.441,0,0,0,121.3506,54.3135Z"/><path class="cls-58" d="M125.5391,54.8174q-.003.0762-.0088.1582l-2.042.02a2.1165,2.1165,0,0,0,.0664.4942,1.1674,1.1674,0,0,0,.1865.3994.85.85,0,0,0,.333.2666,1.1831,1.1831,0,0,0,.4981.0947,1.5054,1.5054,0,0,0,.4629-.0723,2.331,2.331,0,0,0,.4316-.1875l-.0508.3936a1.6905,1.6905,0,0,1-.5078.2158,2.3865,2.3865,0,0,1-.5508.0625,1.9889,1.9889,0,0,1-.6631-.1045,1.3605,1.3605,0,0,1-.5136-.31,1.4109,1.4109,0,0,1-.33-.4981,1.7547,1.7547,0,0,1-.1172-.6592,1.7791,1.7791,0,0,1,.1143-.6406,1.5619,1.5619,0,0,1,.32-.5166,1.4508,1.4508,0,0,1,.4941-.3418,1.5943,1.5943,0,0,1,.6377-.124,1.33,1.33,0,0,1,.916.292,1.1464,1.1464,0,0,1,.3272.9C125.543,54.7139,125.541,54.7666,125.5391,54.8174Zm-.7764-.4981a.7754.7754,0,0,0-.0889-.2529.5055.5055,0,0,0-.1738-.1807.5354.5354,0,0,0-.2891-.07.6245.6245,0,0,0-.32.0762.6434.6434,0,0,0-.2129.2.9118.9118,0,0,0-.123.2822,1.7816,1.7816,0,0,0-.0537.3233l1.2871-.0889A1.6831,1.6831,0,0,0,124.7627,54.3193Z"/><path class="cls-58" d="M130.3418,56.6367q.0323-.4174.0381-.8369.0074-.4174.0068-.8369c0-.1221-.0058-.2393-.0156-.3516a.8076.8076,0,0,0-.083-.2978.5113.5113,0,0,0-.1963-.209.6891.6891,0,0,0-.3584-.08,1.0735,1.0735,0,0,0-.374.0635.5453.5453,0,0,0-.2793.248v2.3008h-.7354c.0254-.2822.042-.5664.0508-.85s.0127-.5683.0127-.8555c0-.1181-.0049-.2324-.0156-.3427a.8115.8115,0,0,0-.083-.295.5037.5037,0,0,0-.1934-.206.6738.6738,0,0,0-.3486-.0762.9319.9319,0,0,0-.377.0762.7027.7027,0,0,0-.2949.248v2.3008H126.36q.0511-.57.0693-1.1308.0191-.5625.02-1.1319a.5914.5914,0,0,0-.1113-.4131.6.6,0,0,0-.4092-.1279v-.1846a3.6682,3.6682,0,0,1,.5615-.08c.1885-.0127.377-.0186.5674-.0186l.0127.418a.95.95,0,0,1,.4346-.3184,1.5866,1.5866,0,0,1,.5547-.1,1.49,1.49,0,0,1,.539.0947.7453.7453,0,0,1,.3868.334.9.9,0,0,1,.4531-.3379,1.8666,1.8666,0,0,1,.5869-.0908,1.0776,1.0776,0,0,1,.7891.25,1.05,1.05,0,0,1,.25.7705q0,.3046-.0157.5928c-.0107.1924-.0156.39-.0156.5928a2.4448,2.4448,0,0,0,.0127.27.502.502,0,0,0,.0635.2031.3521.3521,0,0,0,.1523.1358.8108.8108,0,0,0,.2725.07v.2021Z"/><path class="cls-58" d="M134.5742,54.8174q-.0028.0762-.0088.1582l-2.042.02a2.1218,2.1218,0,0,0,.0664.4942,1.1543,1.1543,0,0,0,.1875.3994.8469.8469,0,0,0,.3321.2666,1.183,1.183,0,0,0,.498.0947,1.5044,1.5044,0,0,0,.4629-.0723,2.3319,2.3319,0,0,0,.4317-.1875l-.0508.3936a1.6916,1.6916,0,0,1-.5078.2158,2.39,2.39,0,0,1-.5518.0625,1.9912,1.9912,0,0,1-.6621-.1045,1.36,1.36,0,0,1-.5137-.31,1.4122,1.4122,0,0,1-.33-.4981,1.7547,1.7547,0,0,1-.1171-.6592,1.7791,1.7791,0,0,1,.1142-.6406,1.5635,1.5635,0,0,1,.32-.5166,1.461,1.461,0,0,1,.4942-.3418,1.5936,1.5936,0,0,1,.6377-.124,1.33,1.33,0,0,1,.916.292,1.1463,1.1463,0,0,1,.3271.9C134.5781,54.7139,134.5762,54.7666,134.5742,54.8174Zm-.7763-.4981a.7777.7777,0,0,0-.0889-.2529.5.5,0,0,0-.1748-.1807.53.53,0,0,0-.2881-.07.6243.6243,0,0,0-.32.0762.6308.6308,0,0,0-.2119.2.8928.8928,0,0,0-.1241.2822,1.79,1.79,0,0,0-.0537.3233l1.2871-.0889A1.683,1.683,0,0,0,133.7979,54.3193Z"/><path class="cls-58" d="M137.4434,56.624q.0321-.4175.038-.8369.006-.4175.0059-.8369c0-.1221-.0049-.2393-.0156-.3516a.81.81,0,0,0-.083-.2978.5138.5138,0,0,0-.1973-.209.6928.6928,0,0,0-.3594-.08,1.0269,1.0269,0,0,0-.3955.08.748.748,0,0,0-.3183.25V56.624h-.73q.0381-.57.0664-1.1347t.0283-1.1348a.5753.5753,0,0,0-.11-.4072.6174.6174,0,0,0-.4091-.1211v-.1807a3.8006,3.8006,0,0,1,.56-.0781c.1866-.0117.375-.0176.5635-.0176l.0127.4063a.795.795,0,0,1,.2022-.19,1.15,1.15,0,0,1,.2529-.125,1.57,1.57,0,0,1,.2822-.07,2.0039,2.0039,0,0,1,.2959-.0215,1.131,1.131,0,0,1,.7988.24,1.0194,1.0194,0,0,1,.2539.7676q0,.2726-.0166.542c-.01.18-.0156.36-.0156.542q0,.1715.0029.3047a.6138.6138,0,0,0,.0479.2314.3421.3421,0,0,0,.1494.1582.84.84,0,0,0,.3008.086v.2021Z"/><path class="cls-58" d="M139.9473,53.93v1.5664c0,.085.0029.1709.01.2588a.7133.7133,0,0,0,.0537.2334.3865.3865,0,0,0,.1426.17.471.471,0,0,0,.27.0664,1.5826,1.5826,0,0,0,.1709-.01,1.2218,1.2218,0,0,0,.165-.0283l-.0313.3262a.8433.8433,0,0,1-.2949.0771c-.1123.0108-.2168.0157-.3144.0157a.8341.8341,0,0,1-.64-.2246.8878.8878,0,0,1-.21-.63q0-.4555.0068-.9072c.0039-.3018.0107-.6045.0185-.9073l-.5644-.0937v-.1817l.5713-.1113v-.8184l.6592-.12-.0059.9385h.8115v.38Z"/><path class="cls-58" d="M145.29,55.9307a1.11,1.11,0,0,1-.333.3838,1.4459,1.4459,0,0,1-.4824.2207,2.2789,2.2789,0,0,1-.57.07,2.8166,2.8166,0,0,1-.6182-.0674,1.6615,1.6615,0,0,1-.5673-.2461l.1269-.6016a1.3651,1.3651,0,0,0,.4658.4014,1.3189,1.3189,0,0,0,.6055.1328.8334.8334,0,0,0,.5264-.1621.578.578,0,0,0,.2089-.4873.5584.5584,0,0,0-.1425-.4082,1.1256,1.1256,0,0,0-.3555-.2363,3.8534,3.8534,0,0,0-.459-.1621,2.0914,2.0914,0,0,1-.46-.1905,1.0637,1.0637,0,0,1-.3555-.3242.964.964,0,0,1-.1426-.5557,1.05,1.05,0,0,1,.1367-.5429,1.1993,1.1993,0,0,1,.3545-.38,1.5568,1.5568,0,0,1,.4981-.2207,2.302,2.302,0,0,1,.5644-.07,2.9079,2.9079,0,0,1,.4785.04,1.6773,1.6773,0,0,1,.4532.1465l-.0948.8594h-.2031a.1635.1635,0,0,1-.0127-.0635.1672.1672,0,0,0-.0127-.0635.733.733,0,0,0-.2217-.415.715.715,0,0,0-.456-.124.9736.9736,0,0,0-.2793.04.6811.6811,0,0,0-.2315.1172.5455.5455,0,0,0-.1552.1924.6086.6086,0,0,0-.0577.27.5274.5274,0,0,0,.1426.3955,1.1492,1.1492,0,0,0,.3555.2265,3.9933,3.9933,0,0,0,.46.1592,2.0026,2.0026,0,0,1,.4589.1934,1.0729,1.0729,0,0,1,.3555.334,1.044,1.044,0,0,1,.1426.5859A1.1642,1.1642,0,0,1,145.29,55.9307Z"/><path class="cls-58" d="M148.0039,55.0986q-.3267.7691-.6377,1.5625c-.0547.1377-.1133.2754-.1748.4151a1.686,1.686,0,0,1-.2246.3779,1.1127,1.1127,0,0,1-.3174.2754.89.89,0,0,1-.45.1064h-.2148l-.0127-.6621a.5518.5518,0,0,0,.1611.1446.3384.3384,0,0,0,.168.0546.5208.5208,0,0,0,.2822-.0742.8169.8169,0,0,0,.2061-.1875,1.2062,1.2062,0,0,0,.1523-.2519c.042-.0928.0781-.1817.1074-.2686-.1093-.27-.22-.541-.3291-.8105s-.2265-.5391-.3486-.8106c-.0684-.15-.1377-.3037-.21-.4609a3.0406,3.0406,0,0,0-.247-.4424.48.48,0,0,0-.168-.1816.66.66,0,0,0-.2441-.045l-.0254-.1933c.1357-.03.2714-.0537.4091-.0713a3.2624,3.2624,0,0,1,.4151-.0254h.1972l.9122,2.0713q.1845-.5142.3427-1.03t.3174-1.041h.6026Q148.33,54.3306,148.0039,55.0986Z"/><path class="cls-58" d="M151.0908,56.1582a.8893.8893,0,0,1-.2754.3047,1.11,1.11,0,0,1-.3935.165,2.232,2.232,0,0,1-.4629.0469,2.3647,2.3647,0,0,1-.5195-.0537,1.6067,1.6067,0,0,1-.4825-.1992l.1338-.5967a2.1269,2.1269,0,0,0,.3643.3555.7661.7661,0,0,0,.4785.1523.559.559,0,0,0,.3516-.1142.39.39,0,0,0,.1494-.33.3943.3943,0,0,0-.1075-.291.8689.8689,0,0,0-.2734-.1807c-.1094-.0488-.2266-.0957-.3516-.14a1.8765,1.8765,0,0,1-.3515-.1679.846.846,0,0,1-.2725-.2666.7719.7719,0,0,1-.1084-.4307.852.852,0,0,1,.1114-.4541.8726.8726,0,0,1,.291-.291,1.2819,1.2819,0,0,1,.4091-.1592,2.2734,2.2734,0,0,1,.4571-.0469,2.6792,2.6792,0,0,1,.415.0313,1.488,1.488,0,0,1,.3965.12l-.083.73h-.209a.669.669,0,0,0-.168-.3838.5148.5148,0,0,0-.39-.1426.5789.5789,0,0,0-.3457.1114.37.37,0,0,0-.1553.32.3447.3447,0,0,0,.11.2656.9982.9982,0,0,0,.2763.1748c.1094.0488.23.0947.3614.14a1.691,1.691,0,0,1,.3613.1709.9466.9466,0,0,1,.2764.27.7669.7669,0,0,1,.11.4316A.9292.9292,0,0,1,151.0908,56.1582Z"/><path class="cls-58" d="M152.6982,53.93v1.5664c0,.085.003.1709.01.2588a.7133.7133,0,0,0,.0537.2334.3865.3865,0,0,0,.1426.17.4706.4706,0,0,0,.2695.0664,1.5812,1.5812,0,0,0,.1709-.01,1.2207,1.2207,0,0,0,.1651-.0283l-.0313.3262a.8433.8433,0,0,1-.2949.0771c-.1123.0108-.2168.0157-.3145.0157a.8339.8339,0,0,1-.64-.2246.8874.8874,0,0,1-.21-.63q0-.4555.0069-.9072c.0039-.3018.0107-.6045.0185-.9073l-.5644-.0937v-.1817l.5713-.1113v-.8184l.6591-.12-.0058.9385h.8115v.38Z"/><path class="cls-58" d="M156.6826,54.8174q-.0028.0762-.0088.1582l-2.042.02a2.1218,2.1218,0,0,0,.0664.4942,1.1543,1.1543,0,0,0,.1875.3994.8469.8469,0,0,0,.3321.2666,1.183,1.183,0,0,0,.498.0947,1.5044,1.5044,0,0,0,.4629-.0723,2.3319,2.3319,0,0,0,.4317-.1875l-.0508.3936a1.6916,1.6916,0,0,1-.5078.2158,2.39,2.39,0,0,1-.5518.0625,1.9912,1.9912,0,0,1-.6621-.1045,1.36,1.36,0,0,1-.5137-.31,1.4122,1.4122,0,0,1-.33-.4981,1.7547,1.7547,0,0,1-.1171-.6592,1.7791,1.7791,0,0,1,.1142-.6406,1.5635,1.5635,0,0,1,.32-.5166,1.461,1.461,0,0,1,.4942-.3418,1.5936,1.5936,0,0,1,.6377-.124,1.33,1.33,0,0,1,.916.292,1.1467,1.1467,0,0,1,.3271.9C156.6865,54.7139,156.6846,54.7666,156.6826,54.8174Zm-.7764-.4981a.7753.7753,0,0,0-.0888-.2529.5.5,0,0,0-.1748-.1807.53.53,0,0,0-.2881-.07.6243.6243,0,0,0-.32.0762.6308.6308,0,0,0-.2119.2.8928.8928,0,0,0-.1241.2822,1.79,1.79,0,0,0-.0537.3233l1.2871-.0889A1.6732,1.6732,0,0,0,155.9062,54.3193Z"/><path class="cls-58" d="M161.4863,56.6367q.0323-.4174.0381-.8369.0073-.4174.0068-.8369c0-.1221-.0058-.2393-.0156-.3516a.8076.8076,0,0,0-.083-.2978.5107.5107,0,0,0-.1963-.209.6888.6888,0,0,0-.3584-.08,1.0739,1.0739,0,0,0-.374.0635.5457.5457,0,0,0-.2793.248v2.3008h-.7353c.0253-.2822.0419-.5664.0507-.85s.0127-.5683.0127-.8555c0-.1181-.0048-.2324-.0156-.3427a.81.81,0,0,0-.083-.295.503.503,0,0,0-.1934-.206.6735.6735,0,0,0-.3486-.0762.9314.9314,0,0,0-.3769.0762.7024.7024,0,0,0-.295.248v2.3008h-.7353c.0342-.38.0566-.7568.0693-1.1308s.02-.752.02-1.1319a.5914.5914,0,0,0-.1114-.4131.6.6,0,0,0-.4092-.1279v-.1846a3.67,3.67,0,0,1,.5616-.08c.1884-.0127.3769-.0186.5673-.0186l.0127.418a.95.95,0,0,1,.4346-.3184,1.587,1.587,0,0,1,.5547-.1,1.4914,1.4914,0,0,1,.5391.0947.7455.7455,0,0,1,.3867.334.9.9,0,0,1,.4531-.3379,1.8666,1.8666,0,0,1,.5869-.0908,1.0776,1.0776,0,0,1,.7891.25,1.0493,1.0493,0,0,1,.25.7705q0,.3046-.0156.5928c-.0108.1924-.0157.39-.0157.5928a2.4448,2.4448,0,0,0,.0127.27.502.502,0,0,0,.0635.2031.3521.3521,0,0,0,.1523.1358.8115.8115,0,0,0,.2725.07v.2021Z"/><path class="cls-58" d="M165.084,56.1582a.89.89,0,0,1-.2754.3047,1.11,1.11,0,0,1-.3936.165,2.2306,2.2306,0,0,1-.4629.0469,2.366,2.366,0,0,1-.5195-.0537,1.6062,1.6062,0,0,1-.4824-.1992l.1338-.5967a2.1263,2.1263,0,0,0,.3642.3555.7666.7666,0,0,0,.4786.1523.5585.5585,0,0,0,.3515-.1142.39.39,0,0,0,.1494-.33.3942.3942,0,0,0-.1074-.291.8712.8712,0,0,0-.2734-.1807c-.1094-.0488-.2266-.0957-.3516-.14a1.8735,1.8735,0,0,1-.3515-.1679.846.846,0,0,1-.2725-.2666.7711.7711,0,0,1-.1084-.4307.8529.8529,0,0,1,.1113-.4541.8726.8726,0,0,1,.291-.291,1.2824,1.2824,0,0,1,.4092-.1592,2.2731,2.2731,0,0,1,.457-.0469,2.68,2.68,0,0,1,.4151.0313,1.4891,1.4891,0,0,1,.3965.12l-.083.73h-.209a.67.67,0,0,0-.168-.3838.5148.5148,0,0,0-.39-.1426.5789.5789,0,0,0-.3457.1114.3694.3694,0,0,0-.1553.32.345.345,0,0,0,.11.2656,1,1,0,0,0,.2764.1748c.1094.0488.23.0947.3613.14a1.69,1.69,0,0,1,.3614.1709.945.945,0,0,1,.2763.27.7661.7661,0,0,1,.11.4316A.93.93,0,0,1,165.084,56.1582Z"/><path class="cls-58" d="M169.998,54.0742a1.18,1.18,0,0,1-.33.3955,1.4435,1.4435,0,0,1-.4727.2373,1.9184,1.9184,0,0,1-.5508.0791,3.0516,3.0516,0,0,1-.3369-.02l.0127,1.8389h-.7988q.0323-.7675.06-1.53t.0284-1.5293c0-.1094-.003-.2109-.0088-.3057a.6952.6952,0,0,0-.0635-.2529.4579.4579,0,0,0-.1621-.1836.6433.6433,0,0,0-.2979-.0918v-.2275h1.7246a2.6969,2.6969,0,0,1,.5137.0468,1.17,1.17,0,0,1,.418.1651.8311.8311,0,0,1,.2822.3193,1.1026,1.1026,0,0,1,.1045.5117A1.1685,1.1685,0,0,1,169.998,54.0742Zm-.71-.8525a.5188.5188,0,0,0-.1748-.2207.6992.6992,0,0,0-.2725-.1114,1.8025,1.8025,0,0,0-.3554-.0312c-.0293,0-.0577.001-.085.0029s-.0566.003-.0859.003l-.0069,1.5351a.6021.6021,0,0,1,.0606.0029.5834.5834,0,0,0,.06.003,1.0331,1.0331,0,0,0,.669-.2022.7609.7609,0,0,0,.25-.6308A.8938.8938,0,0,0,169.2881,53.2217Z"/><path class="cls-58" d="M172.7207,55.0811q-.2665.763-.5322,1.5371h-.5772q-.1141-.2975-.2285-.6153c-.0762-.2109-.1543-.4218-.2344-.6308s-.164-.416-.25-.6211-.1787-.4-.2763-.5869c-.0293-.0508-.0557-.0967-.0791-.14a.4056.4056,0,0,0-.0821-.1045.41.41,0,0,0-.1142-.0664.4671.4671,0,0,0-.1621-.0254l-.0127-.1836a2.5587,2.5587,0,0,1,.4443-.0761c.1524-.0127.3018-.0186.45-.0186h.0762q.227.57.4531,1.1533.2241.5831.4531,1.18.1847-.5831.3555-1.16t.2978-1.1729h.5831Q172.9878,54.3159,172.7207,55.0811Z"/><path class="cls-58" d="M174.7822,53.93v1.5664c0,.085.003.1709.01.2588a.7133.7133,0,0,0,.0537.2334.3865.3865,0,0,0,.1426.17.4706.4706,0,0,0,.2695.0664,1.5812,1.5812,0,0,0,.1709-.01,1.2207,1.2207,0,0,0,.1651-.0283l-.0313.3262a.8439.8439,0,0,1-.2949.0771c-.1123.0108-.2168.0157-.3145.0157a.8338.8338,0,0,1-.64-.2246.8874.8874,0,0,1-.21-.63q0-.4555.0069-.9072c.0039-.3018.0107-.6045.0185-.9073l-.5644-.0937v-.1817l.5712-.1113v-.8184l.6592-.12-.0058.9385h.8115v.38Z"/><path class="cls-58" d="M176.8613,56.5361a.5433.5433,0,0,1-.3037.0694.4988.4988,0,0,1-.292-.0694.1982.1982,0,0,1-.0947-.1621.196.196,0,0,1,.1045-.1621.6748.6748,0,0,1,.59-.0029.1908.1908,0,0,1,.0977.1621A.1993.1993,0,0,1,176.8613,56.5361Z"/><path class="cls-58" d="M180.5078,56.6055q-.5961,0-1.1924-.0059t-1.1924.0059q.0513-.7632.0665-1.5215t.0166-1.5205c0-.126-.0049-.2373-.0127-.335a.5057.5057,0,0,0-.0762-.2392.3806.3806,0,0,0-.1875-.1426,1.0056,1.0056,0,0,0-.3457-.0469v-.208a4.54,4.54,0,0,1,.539-.082c.1817-.0176.3643-.0254.5459-.0254h.2471q-.0058.813-.0068,1.6133v1.6064a1.4039,1.4039,0,0,0,.0195.2539.3057.3057,0,0,0,.0733.1592.2993.2993,0,0,0,.1484.082.9536.9536,0,0,0,.2471.0254h.2412c.123,0,.2236-.0029.3047-.0088a.4071.4071,0,0,0,.1992-.0635.3663.3663,0,0,0,.1269-.1621,1.4338,1.4338,0,0,0,.086-.2978h.2275Z"/><path class="cls-58" d="M181.8955,53.93v1.5664c0,.085.0029.1709.01.2588a.7108.7108,0,0,0,.0537.2334.3858.3858,0,0,0,.1426.17.47.47,0,0,0,.27.0664,1.5812,1.5812,0,0,0,.1709-.01,1.2162,1.2162,0,0,0,.165-.0283l-.0312.3262a.8439.8439,0,0,1-.2949.0771c-.1123.0108-.2168.0157-.3145.0157a.8338.8338,0,0,1-.64-.2246.8874.8874,0,0,1-.21-.63q0-.4555.0068-.9072c.0039-.3018.0108-.6045.0186-.9073l-.5645-.0937v-.1817l.5713-.1113v-.8184l.6592-.12-.0059.9385h.8116v.38Z"/><path class="cls-58" d="M185.4785,56.6055v-.4112a1.1034,1.1034,0,0,1-.4121.3145,1.306,1.306,0,0,1-.5137.0967,1.41,1.41,0,0,1-.58-.1133,1.2522,1.2522,0,0,1-.4346-.3106,1.3983,1.3983,0,0,1-.2725-.4609,1.61,1.61,0,0,1-.0947-.5547,1.7522,1.7522,0,0,1,.12-.6592,1.44,1.44,0,0,1,.3428-.5117,1.5235,1.5235,0,0,1,.5293-.33,1.921,1.921,0,0,1,.6816-.1152,1.793,1.793,0,0,1,.2949.0244,1.2381,1.2381,0,0,1,.2823.083q.0059-.1011.0058-.2021v-.208c0-.1485-.0058-.2959-.0185-.4444a.5659.5659,0,0,0-.1367-.38.5127.5127,0,0,0-.377-.1045v-.2022a3.1582,3.1582,0,0,1,.8369-.1142h.3487q-.0073.8143-.0127,1.6093t-.0069,1.6084v.2793c0,.0889.003.1807.0069.2735a2.5271,2.5271,0,0,0,.0224.2578.4327.4327,0,0,0,.0664.1875.3432.3432,0,0,0,.1485.1211.9025.9025,0,0,0,.2568.0634v.2032Zm-.0693-1.875a2.2769,2.2769,0,0,0-.02-.2979.7445.7445,0,0,0-.0791-.2558.4557.4557,0,0,0-.1806-.18.6623.6623,0,0,0-.3233-.0674.7715.7715,0,0,0-.4248.1094.8184.8184,0,0,0-.2724.2793,1.1573,1.1573,0,0,0-.1426.38,2.0152,2.0152,0,0,0-.042.4024,1.5834,1.5834,0,0,0,.0449.3711,1.018,1.018,0,0,0,.1426.3359.8.8,0,0,0,.2568.2412.759.759,0,0,0,.3926.0938,1.1519,1.1519,0,0,0,.3526-.0557.6147.6147,0,0,0,.288-.1914c.0039-.1016.0069-.2021.0069-.3v-.8652Z"/></g></g></svg>