<?xml version="1.0" encoding="utf-8"?>
<!-- Generator: Adobe Illustrator 25.4.1, SVG Export Plug-In . SVG Version: 6.00 Build 0)  -->
<svg version="1.1" id="Layer_1" xmlns="http://www.w3.org/2000/svg" xmlns:xlink="http://www.w3.org/1999/xlink" x="0px" y="0px"
	 viewBox="0 0 662 210" style="enable-background:new 0 0 662 210;" xml:space="preserve">
<style type="text/css">
	.st0{fill:url(#SVGID_1_);}
	.st1{fill:url(#SVGID_00000140695389763152220960000002760451928328958093_);}
	.st2{fill:url(#SVGID_00000042012580357681895090000014100232143484166016_);}
	.st3{fill:url(#SVGID_00000091729012668889283810000005332771298806568117_);}
	.st4{fill:url(#SVGID_00000107548798350437102440000010231934496991020196_);}
	.st5{fill:url(#SVGID_00000132067783595175062390000016704695451580531341_);}
	.st6{fill:url(#SVGID_00000075135325734025590440000000948752574060055996_);}
	.st7{fill:url(#SVGID_00000085970371762515215820000010559702463785107391_);}
	.st8{fill:url(#SVGID_00000001622825320150844600000001237533153413953164_);}
	.st9{fill:#127D3F;}
	.st10{fill:#0D80BC;}
	.st11{fill:#34351D;}
	.st12{font-family:'CiceroMediumW00-Regular';}
	.st13{font-size:22px;}
</style>
<g id="Layer_2_00000127746979407106292940000004658783353354106519_">
</g>
<g id="Layer_1_00000167379315809581434030000017557726396838535601_">
	
		<linearGradient id="SVGID_1_" gradientUnits="userSpaceOnUse" x1="271.35" y1="23.755" x2="656.15" y2="23.755" gradientTransform="matrix(1 0 0 -1 0 214)">
		<stop  offset="0" style="stop-color:#F6E243"/>
		<stop  offset="0.3602" style="stop-color:#F8D937"/>
		<stop  offset="1" style="stop-color:#FFC416"/>
	</linearGradient>
	<path class="st0" d="M650.05,205.6h-372.6c-3.36,0-6.1-2.75-6.1-6.1v-18.51c0-3.36,2.75-6.1,6.1-6.1h372.6c3.36,0,6.1,2.75,6.1,6.1
		v18.51C656.15,202.85,653.41,205.6,650.05,205.6z"/>
	<g>
		
			<radialGradient id="SVGID_00000134954879314346407130000016238577388385395389_" cx="79.3811" cy="138.694" r="23.0554" gradientTransform="matrix(1 0 0 -1 0 214)" gradientUnits="userSpaceOnUse">
			<stop  offset="0.1485" style="stop-color:#F6E243"/>
			<stop  offset="0.4552" style="stop-color:#F8D937"/>
			<stop  offset="1" style="stop-color:#FFC416"/>
		</radialGradient>
		<path style="fill:url(#SVGID_00000134954879314346407130000016238577388385395389_);" d="M122.04,59.81l-61.92,61.06
			c-6.38-6.08-10.96-14.17-12.68-23.51C43.08,73.74,58.7,51.04,82.32,46.68C97.49,43.9,112.25,49.32,122.04,59.81z"/>
		
			<linearGradient id="SVGID_00000127006828433356262050000002554332103035754630_" gradientUnits="userSpaceOnUse" x1="60.177" y1="191.79" x2="74.0919" y2="191.79" gradientTransform="matrix(1 0 0 -1 0 214)">
			<stop  offset="0.1485" style="stop-color:#F6E243"/>
			<stop  offset="0.4552" style="stop-color:#F8D937"/>
			<stop  offset="1" style="stop-color:#FFC416"/>
		</linearGradient>
		<path style="fill:url(#SVGID_00000127006828433356262050000002554332103035754630_);" d="M69.49,21.25
			c-3.61-8.84-7.6-15.58-8.9-15.05s0.57,8.13,4.19,16.97c3.61,8.84,7.6,15.58,8.9,15.05C74.98,37.69,73.1,30.09,69.49,21.25z"/>
		
			<linearGradient id="SVGID_00000146487364001907327800000018260311028300816566_" gradientUnits="userSpaceOnUse" x1="29.2276" y1="172.2149" x2="52.3196" y2="172.2149" gradientTransform="matrix(1 0 0 -1 0 214)">
			<stop  offset="0.1485" style="stop-color:#F6E243"/>
			<stop  offset="0.4552" style="stop-color:#F8D937"/>
			<stop  offset="1" style="stop-color:#FFC416"/>
		</linearGradient>
		<path style="fill:url(#SVGID_00000146487364001907327800000018260311028300816566_);" d="M42.69,40.11
			c-6.29-7.19-12.24-12.28-13.3-11.35c-1.06,0.92,3.18,7.5,9.47,14.7s12.24,12.28,13.3,11.35C53.21,53.88,48.97,47.3,42.69,40.11z"
			/>
		
			<linearGradient id="SVGID_00000007415093963765709400000017324367492519661738_" gradientUnits="userSpaceOnUse" x1="6.4963" y1="138.235" x2="39.923" y2="138.235" gradientTransform="matrix(1 0 0 -1 0 214)">
			<stop  offset="0.1485" style="stop-color:#F6E243"/>
			<stop  offset="0.4552" style="stop-color:#F8D937"/>
			<stop  offset="1" style="stop-color:#FFC416"/>
		</linearGradient>
		<path style="fill:url(#SVGID_00000007415093963765709400000017324367492519661738_);" d="M23.87,73.31
			c-9.22-2.49-17-3.41-17.36-2.05c-0.37,1.36,6.81,4.47,16.04,6.96s17,3.41,17.36,2.05C40.27,78.91,33.09,75.8,23.87,73.31z"/>
		
			<linearGradient id="SVGID_00000106826748819581971680000005394229761822944955_" gradientUnits="userSpaceOnUse" x1="9.267" y1="107.326" x2="42.703" y2="107.326" gradientTransform="matrix(1 0 0 -1 0 214)">
			<stop  offset="0.1485" style="stop-color:#F6E243"/>
			<stop  offset="0.4552" style="stop-color:#F8D937"/>
			<stop  offset="1" style="stop-color:#FFC416"/>
		</linearGradient>
		<path style="fill:url(#SVGID_00000106826748819581971680000005394229761822944955_);" d="M25.33,104.22
			c-9.23,2.47-16.41,5.58-16.05,6.93c0.36,1.36,8.14,0.45,17.36-2.02c9.23-2.47,16.41-5.58,16.05-6.93
			C42.33,100.84,34.55,101.74,25.33,104.22z"/>
		
			<linearGradient id="SVGID_00000090267062763520501500000005386789084451257518_" gradientUnits="userSpaceOnUse" x1="24.5097" y1="82.0399" x2="50.0403" y2="82.0399" gradientTransform="matrix(1 0 0 -1 0 214)">
			<stop  offset="0.1485" style="stop-color:#F6E243"/>
			<stop  offset="0.4552" style="stop-color:#F8D937"/>
			<stop  offset="1" style="stop-color:#FFC416"/>
		</linearGradient>
		<path style="fill:url(#SVGID_00000090267062763520501500000005386789084451257518_);" d="M35.54,130.1
			c-6.98,6.52-11.87,12.63-10.91,13.66s7.4-3.42,14.38-9.94s11.87-12.63,10.91-13.66C48.96,119.13,42.52,123.59,35.54,130.1z"/>
		
			<linearGradient id="SVGID_00000035515490634829647190000005325180536236920742_" gradientUnits="userSpaceOnUse" x1="123.1374" y1="173.73" x2="147.8624" y2="173.73" gradientTransform="matrix(1 0 0 -1 0 214)">
			<stop  offset="0.1485" style="stop-color:#F6E243"/>
			<stop  offset="0.4552" style="stop-color:#F8D937"/>
			<stop  offset="1" style="stop-color:#FFC416"/>
		</linearGradient>
		<path style="fill:url(#SVGID_00000035515490634829647190000005325180536236920742_);" d="M137.3,42.07
			c6.75-6.75,11.42-13.04,10.43-14.03c-0.99-0.99-7.27,3.68-14.03,10.43s-11.42,13.04-10.43,14.03
			C124.27,53.49,130.55,48.82,137.3,42.07z"/>
		
			<linearGradient id="SVGID_00000012446607653481387510000007522261154388225676_" gradientUnits="userSpaceOnUse" x1="101.0031" y1="192.415" x2="110.9069" y2="192.415" gradientTransform="matrix(1 0 0 -1 0 214)">
			<stop  offset="0.1485" style="stop-color:#F6E243"/>
			<stop  offset="0.4552" style="stop-color:#F8D937"/>
			<stop  offset="1" style="stop-color:#FFC416"/>
		</linearGradient>
		<path style="fill:url(#SVGID_00000012446607653481387510000007522261154388225676_);" d="M108.42,22.22
			c2.37-9.25,3.19-17.04,1.83-17.39c-1.36-0.35-4.39,6.87-6.76,16.12s-3.19,17.04-1.83,17.39
			C103.03,38.69,106.05,31.47,108.42,22.22z"/>
	</g>
	<path d="M99.86,76.76c-0.29,4.95-0.59,9.9-0.86,14.81l0.93-14.81H99.86z"/>
	<path class="st9" d="M169.13,164.26c-1.75-4.77-3.55-9.52-5.38-14.25c-1.84-4.73-3.67-9.48-5.51-14.25
		c-2.54-0.09-5.14-0.15-7.81-0.2c-2.67-0.04-5.27-0.07-7.81-0.07c-2.89,0-5.63,0.02-8.21,0.07s-5.32,0.11-8.2,0.2
		c-1.66,4.77-3.33,9.52-4.99,14.25s-3.28,9.48-4.86,14.25h-13c6.3-14.32,12.38-28.64,18.25-42.95
		c5.86-14.32,11.69-28.77,17.46-43.35h13c3.85,10.08,7.77,20.04,11.75,29.9s8.08,19.73,12.27,29.63c1.23,2.83,2.49,5.72,3.81,8.68
		c1.31,2.96,2.89,5.68,4.72,8.15c1.05,1.5,2.15,2.65,3.28,3.45c1.14,0.8,2.63,1.37,4.46,1.72v4.77L169.13,164.26L169.13,164.26z
		 M141.7,92.94c-2.28,5.66-4.42,11.33-6.43,17.04c-2.02,5.7-4.07,11.42-6.17,17.17c2.45,0.18,4.68,0.26,6.7,0.26
		c2.1,0,4.38,0,6.83,0c1.93,0,4-0.02,6.23-0.07c2.23-0.04,4.31-0.11,6.24-0.2L141.7,92.94z"/>
	<path class="st9" d="M237.05,102.48c-4.51,8.22-8.99,16.57-13.46,25.06V164h-16.28c0.17-5.13,0.44-10.23,0.79-15.31
		c0.35-5.08,0.53-10.19,0.53-15.31c0-0.97,0-1.9,0-2.78c0-0.97-0.05-1.94-0.13-2.92c-1.4-2.92-2.98-5.99-4.73-9.21
		c-1.75-3.23-3.61-6.45-5.58-9.68c-1.97-3.22-3.98-6.38-6.04-9.48c-2.06-3.09-4-5.97-5.84-8.62c-0.79-1.15-1.51-2.1-2.17-2.85
		s-1.34-1.37-2.04-1.86c-0.7-0.48-1.53-0.88-2.49-1.19c-0.96-0.31-2.14-0.55-3.55-0.73l-0.26-4.24c3.68-0.71,7.31-1.17,10.9-1.39
		s7.22-0.33,10.9-0.33l22.58,39.91c3.33-6.45,6.43-13.12,9.32-20.02c2.89-6.89,5.69-13.52,8.4-19.89h13.13
		C246.22,86.13,241.56,94.26,237.05,102.48z"/>
	<path class="st10" d="M324.59,150.16c-1.71,3.25-4,5.92-6.89,8.01s-6.22,3.63-9.98,4.62c-3.76,0.98-7.7,1.47-11.82,1.47
		c-4.38,0-8.65-0.47-12.8-1.41c-4.16-0.94-8.08-2.65-11.75-5.14l2.62-12.59c2.8,3.73,6.02,6.52,9.65,8.39
		c3.63,1.86,7.81,2.79,12.54,2.79c4.38,0,8.01-1.13,10.9-3.4c2.89-2.27,4.33-5.66,4.33-10.2c0-3.67-0.98-6.52-2.95-8.53
		s-4.42-3.65-7.35-4.94c-2.93-1.28-6.1-2.42-9.52-3.4c-3.41-0.98-6.59-2.31-9.52-3.98s-5.38-3.93-7.35-6.79s-2.95-6.73-2.95-11.6
		c0-4.36,0.94-8.14,2.82-11.35s4.33-5.86,7.35-7.95c3.02-2.09,6.46-3.63,10.31-4.62c3.85-0.98,7.75-1.48,11.69-1.48
		c3.32,0,6.63,0.28,9.91,0.85s6.41,1.59,9.39,3.07l-1.97,17.96h-4.2c-0.18-0.44-0.26-0.88-0.26-1.33c0-0.44-0.09-0.88-0.26-1.33
		c-0.96-4.06-2.49-6.96-4.6-8.68c-2.1-1.72-5.25-2.58-9.45-2.58c-2.01,0-3.94,0.28-5.78,0.83c-1.84,0.56-3.44,1.37-4.79,2.44
		c-1.36,1.07-2.43,2.42-3.22,4.04s-1.18,3.51-1.18,5.64c0,3.59,0.98,6.35,2.95,8.27c1.97,1.92,4.42,3.51,7.35,4.74
		c2.93,1.24,6.11,2.35,9.52,3.33s6.59,2.33,9.52,4.04c2.93,1.71,5.38,4.04,7.35,6.99c1.97,2.95,2.95,7.03,2.95,12.25
		C327.15,143.06,326.29,146.91,324.59,150.16z"/>
	<path class="st10" d="M340.01,105.07c2.19-5.52,5.3-10.27,9.32-14.26c4.02-3.99,8.82-7.11,14.38-9.36s11.75-3.38,18.58-3.38
		c6.39,0,12.16,1,17.33,2.99c5.16,2,9.54,4.8,13.13,8.4c3.59,3.61,6.37,7.93,8.34,12.98s2.95,10.63,2.95,16.74
		c0,6.53-1.1,12.56-3.28,18.07c-2.19,5.52-5.3,10.27-9.32,14.26c-4.03,3.99-8.82,7.11-14.38,9.36s-11.75,3.37-18.58,3.37
		c-6.39,0-12.17-1-17.33-2.99c-5.17-1.99-9.54-4.79-13.13-8.4s-6.37-7.93-8.34-12.98s-2.95-10.63-2.95-16.74
		C336.73,116.61,337.82,110.59,340.01,105.07z M355.37,133.35c0.96,4.17,2.52,7.95,4.66,11.35c2.14,3.4,4.9,6.19,8.27,8.35
		c3.37,2.17,7.42,3.25,12.14,3.25c4.9,0,9.01-1.08,12.34-3.25s6.04-4.95,8.14-8.35c2.1-3.4,3.61-7.18,4.53-11.35
		c0.92-4.17,1.38-8.25,1.38-12.24c0-3.91-0.48-7.95-1.44-12.11c-0.96-4.17-2.52-7.95-4.66-11.35c-2.15-3.4-4.9-6.18-8.27-8.35
		s-7.42-3.25-12.14-3.25c-4.81,0-8.91,1.09-12.28,3.25c-3.37,2.17-6.1,4.95-8.21,8.35c-2.1,3.4-3.61,7.18-4.53,11.35
		s-1.38,8.25-1.38,12.24C353.93,125.15,354.41,129.19,355.37,133.35z"/>
	<path class="st10" d="M486.08,164.26c-8.23,0-16.46-0.04-24.68-0.13c-8.23-0.09-16.46-0.04-24.68,0.13
		c0.7-10.64,1.16-21.24,1.38-31.8s0.33-21.16,0.33-31.8c0-2.64-0.09-4.97-0.26-6.99c-0.18-2.02-0.7-3.7-1.57-5.01
		c-0.88-1.32-2.17-2.31-3.87-2.97c-1.71-0.66-4.09-0.99-7.16-0.99v-4.35c3.68-0.79,7.4-1.36,11.16-1.72
		c3.76-0.35,7.53-0.53,11.29-0.53c0.87,0,1.71,0,2.49,0c0.87,0,1.75,0,2.62,0c-0.09,11.33-0.13,22.58-0.13,33.73
		c0,11.07,0,22.27,0,33.6c0,2.12,0.13,3.9,0.39,5.31c0.26,1.42,0.77,2.52,1.51,3.32c0.74,0.8,1.77,1.37,3.08,1.73
		c1.31,0.35,3.02,0.53,5.12,0.53h4.99c2.54,0,4.64-0.07,6.3-0.2c1.66-0.13,3.04-0.57,4.14-1.33c1.09-0.75,1.97-1.88,2.62-3.38
		c0.66-1.5,1.25-3.58,1.77-6.23h4.73L486.08,164.26z"/>
	<path d="M98.19,104.3c-0.09,2.1-0.2,4.45-0.32,7.05c0.02,0,0.05-0.02,0.07-0.02l0.09-1.99c0.29-5.58,0.59-11.17,0.9-16.77
		L98.19,104.3z"/>
	<path class="st9" d="M99.93,74.8c-0.02,0.37-0.05,0.73-0.07,1.1c-0.29,5-0.59,10-0.86,14.95c-0.02,0.34-0.05,0.68-0.07,1
		l-0.75,11.85c-0.09,2.12-0.2,4.5-0.32,7.12c-0.25,5.66-0.5,12.44-0.77,20.41c-0.25,7.99-0.68,13.45-1.29,16.39
		c-0.41,2.24-1.09,4.22-1.97,5.96c-0.81,1.55-1.83,2.94-3.03,4.13c-1.4,1.39-3.12,2.63-5.13,3.7c-2.6,1.44-5.38,2.49-8.32,3.17
		c-3.3,0.82-6.87,1.23-10.72,1.23c-6.53,0-14.17-0.96-22.88-2.9c-0.27-4.95-0.66-10.09-1.15-15.41c9.49,3.12,23.28,7.74,32.06,0.71
		c8.42-6.74,6.54-22.32,6.94-32.06c0.25-6.44,0-11.09,0.23-19.08c0.07-3.35,0.14-6.79,0.18-10.33c0.02-2.27-1.2-4.48-3.3-5.4
		c-1.7-0.73-4.11-1.21-7.23-1.37L71.67,75c3.78-0.59,7.66-0.39,11.5-0.55c3.87-0.14,7.69-0.11,11.53,0.07L99.93,74.8z"/>
	<path class="st10" d="M559.63,164.26c-1.75-4.77-3.55-9.52-5.38-14.25c-1.84-4.73-3.68-9.48-5.51-14.25
		c-2.54-0.09-5.14-0.15-7.81-0.2c-2.67-0.04-5.27-0.07-7.81-0.07c-2.89,0-5.63,0.02-8.21,0.07s-5.32,0.11-8.21,0.2
		c-1.66,4.77-3.33,9.52-4.99,14.25s-3.28,9.48-4.86,14.25h-13c6.3-14.32,12.39-28.64,18.25-42.95
		c5.86-14.32,11.69-28.77,17.46-43.35h13c3.85,10.08,7.77,20.04,11.75,29.9s8.07,19.73,12.27,29.63c1.23,2.83,2.49,5.72,3.81,8.68
		c1.31,2.96,2.89,5.68,4.73,8.15c1.05,1.5,2.14,2.65,3.28,3.45s2.63,1.37,4.46,1.72v4.77L559.63,164.26L559.63,164.26z
		 M532.19,92.94c-2.28,5.66-4.42,11.33-6.43,17.04c-2.02,5.7-4.07,11.42-6.17,17.17c2.45,0.18,4.68,0.26,6.7,0.26
		c2.1,0,4.38,0,6.83,0c1.93,0,4-0.02,6.24-0.07c2.23-0.04,4.31-0.11,6.24-0.2L532.19,92.94z"/>
	<path class="st10" d="M632.37,164.26c-3.59-6.54-7.2-13.01-10.83-19.42s-7.42-12.79-11.36-19.16h-3.15v38.58h-16.15
		c0.44-11.14,0.87-22.18,1.31-33.14c0.44-10.96,0.66-22.01,0.66-33.14c0-2.03-0.15-3.95-0.46-5.77c-0.31-1.81-0.85-3.42-1.64-4.84
		c-0.79-1.41-1.93-2.54-3.41-3.38c-1.49-0.84-3.41-1.3-5.78-1.39v-4.64c6.04-0.09,11.99-0.15,17.86-0.2
		c5.86-0.04,11.82-0.07,17.86-0.07c2.36,0,4.75,0.13,7.16,0.4c2.41,0.27,4.75,0.8,7.02,1.59c4.2,1.5,7.48,4.02,9.85,7.56
		c2.36,3.54,3.55,7.56,3.55,12.06c0,5.92-1.79,10.85-5.38,14.78s-8.19,6.52-13.79,7.76c1.23,2.3,2.49,4.53,3.81,6.69
		c1.31,2.17,2.62,4.4,3.94,6.7c0.7,1.15,1.71,2.92,3.02,5.3c1.31,2.39,2.76,4.8,4.33,7.23c1.58,2.43,3.13,4.66,4.66,6.69
		c1.53,2.03,2.82,3.27,3.87,3.71c2.01,0.97,4.33,1.46,6.96,1.46v4.64L632.37,164.26L632.37,164.26z M623.9,89.49
		c-2.93-2.39-6.89-3.58-11.88-3.58h-4.99v32.48h3.68c5.6,0,9.93-1.43,13-4.31c3.06-2.87,4.6-7.23,4.6-13.06
		C628.3,95.72,626.83,91.87,623.9,89.49z"/>
	<text transform="matrix(1 0 0 1 281.9977 196.8004)" class="st11 st12 st13">Energy Management Systems Pvt.Ltd</text>
</g>
</svg>
